<svg id="Group_9358" data-name="Group 9358" xmlns="http://www.w3.org/2000/svg"
    xmlns:xlink="http://www.w3.org/1999/xlink" width="81.255" height="87.229"
    viewBox="0 0 81.255 87.229">
    <defs>
        <clipPath id="clip-path">
            <rect id="Rectangle_2489" data-name="Rectangle 2489" width="81.255" height="87.228"
                fill="#a5f500" />
        </clipPath>
    </defs>
    <g id="Group_9357" data-name="Group 9357" clip-path="url(#clip-path)">
        <path id="Path_13935" data-name="Path 13935"
            d="M84.782,66.616A38.178,38.178,0,1,1,46.6,28.438,38.178,38.178,0,0,1,84.782,66.616"
            transform="translate(-6.255 -21.112)" fill="none" />
        <path id="Path_13936" data-name="Path 13936"
            d="M175.608,119.949c.178.043.322.084.468.111a6.08,6.08,0,0,1,5.025,5.911c.034,2.145.028,4.291,0,6.437a8.125,8.125,0,0,1-6.306,7.788,8.665,8.665,0,0,1-1.82.21c-2.728.022-5.456,0-8.184.014a8.217,8.217,0,0,1-7.717-5.311,8.078,8.078,0,0,1-.517-2.787c-.006-2.115-.013-4.23,0-6.345a6.136,6.136,0,0,1,4.937-5.9c.147-.028.293-.061.522-.109-.473-.125-.865-.209-1.246-.331A6.074,6.074,0,0,1,156.567,114c-.031-2.222-.064-4.446.005-6.666a8.091,8.091,0,0,1,6.105-7.574,8.583,8.583,0,0,1,2-.267q4.16-.044,8.322-.007a8.131,8.131,0,0,1,7.965,6.663,8.906,8.906,0,0,1,.144,1.6q.024,3.011,0,6.023a6.1,6.1,0,0,1-4.3,5.887c-.376.121-.77.185-1.2.286m-6.762-4.093a4.1,4.1,0,1,0-4.108-4.069,4.089,4.089,0,0,0,4.108,4.069m.012,16.378a4.1,4.1,0,1,0-4.123-4.151,4.091,4.091,0,0,0,4.123,4.151"
            transform="translate(-116.204 -73.845)" />
        <path id="Path_13937" data-name="Path 13937"
            d="M77.648,119.977q0,8.116,0,16.232a4.091,4.091,0,0,1-8.176.31c-.008-.214,0-.429,0-.644q0-13.151,0-26.3c0-.153,0-.307,0-.46a.83.83,0,0,0-1.281-.806c-.512.242-1.015.5-1.523.756a3.722,3.722,0,0,1-1.72.434,3.681,3.681,0,0,1-3.551-2.741,3.64,3.64,0,0,1,1.863-4.157c1.346-.7,2.709-1.364,4.065-2.044.411-.206.827-.4,1.233-.616a4.06,4.06,0,0,1,1.9-.461c1.027-.006,2.054-.011,3.081,0a4.076,4.076,0,0,1,4.108,4.128q.014,8.185,0,16.371"
            transform="translate(-45.493 -73.845)" />
        <path id="Path_13938" data-name="Path 13938"
            d="M40.466,137.582A40.485,40.485,0,0,1,11.839,68.47a2.19,2.19,0,0,1,3.1,3.1A36.105,36.105,0,1,0,66,122.627a2.19,2.19,0,0,1,3.1,3.1,40.22,40.22,0,0,1-28.627,11.858"
            transform="translate(0 -50.354)" />
        <path id="Path_13939" data-name="Path 13939"
            d="M274.376,18.267a1.932,1.932,0,0,1-1.932-1.932V1.932a1.932,1.932,0,1,1,3.864,0v14.4a1.932,1.932,0,0,1-1.932,1.932"
            transform="translate(-202.255)" />
        <path id="Path_13940" data-name="Path 13940"
            d="M260.826,31.817h-14.4a1.932,1.932,0,0,1,0-3.864h14.4a1.932,1.932,0,0,1,0,3.864"
            transform="translate(-181.503 -20.751)" />
    </g>
</svg>
  