<svg id="Group_9360" data-name="Group 9360" xmlns="http://www.w3.org/2000/svg"
    xmlns:xlink="http://www.w3.org/1999/xlink" width="82.778" height="82.776"
    viewBox="0 0 82.778 82.776">
    <defs>
        <clipPath id="clip-path">
            <rect id="Rectangle_2491" data-name="Rectangle 2491" width="82.778" height="82.776"
                fill="none" />
        </clipPath>
    </defs>
    <g id="Group_9359" data-name="Group 9359" clip-path="url(#clip-path)">
        <path id="Path_13941" data-name="Path 13941"
            d="M82.778,41.387v36.7a.966.966,0,0,0-.117.207,5.56,5.56,0,0,1-5.808,4.48q-17.136,0-34.272,0A5.581,5.581,0,0,1,36.7,76.881q-.009-4.688,0-9.376v-.911c-.483.4-.827.69-1.175.974a2.024,2.024,0,0,1-3.35-1.579c0-.584,0-1.167,0-1.807-1.924,0-3.751,0-5.578,0a7.69,7.69,0,0,1-8-7.982c-.007-3.071,0-6.143,0-9.215v-.91h-.979c-4.014,0-8.029.02-12.043-.008A5.523,5.523,0,0,1,.013,40.52q-.029-17.5,0-35A5.554,5.554,0,0,1,4.089.2c.2-.059.4-.132.6-.2h36.7A.981.981,0,0,0,41.6.116a5.569,5.569,0,0,1,4.479,5.806q.007,4.323,0,8.646v1.56c.322-.261.535-.413.723-.59a2.12,2.12,0,0,1,3.769,1.689c-.014.443,0,.886,0,1.372,2.153,0,4.171-.036,6.188.008a7.538,7.538,0,0,1,7.261,6.288,30.066,30.066,0,0,1,.157,4.187A1.206,1.206,0,0,1,63,30.371a1.233,1.233,0,0,1-1.238-1.309c-.019-.5,0-1.007,0-1.524h-3.98v9.118h3.98c0-.6-.014-1.161,0-1.721a1.214,1.214,0,1,1,2.417.022c.016.557,0,1.116,0,1.743h.953c3.959,0,7.918-.007,11.878,0a5.552,5.552,0,0,1,5.612,4.319,3,3,0,0,0,.15.367M36.656,46.076c-.488,0-.891,0-1.295,0-.942-.012-1.5-.461-1.512-1.2s.557-1.216,1.491-1.22c1.643-.008,3.286,0,4.93,0a3.164,3.164,0,0,0,3.382-3.384c.008-3.933.016-7.866-.02-11.8a1.669,1.669,0,0,0-.5-1.071c-.981-.921-2.03-1.769-3.043-2.656a2.052,2.052,0,0,1-.022-3.387c1.011-.89,2.026-1.775,3.067-2.629a1.341,1.341,0,0,0,.534-1.167c-.022-3.879-.009-7.758-.013-11.637a3.184,3.184,0,0,0-3.516-3.493q-17.091,0-34.183,0C3.679,2.426,2.43,3.69,2.43,5.99q0,17.051,0,34.1A3.2,3.2,0,0,0,5.962,43.65q6.425,0,12.849,0,5.172,0,10.344,0c.907,0,1.418.437,1.434,1.176.017.777-.506,1.231-1.449,1.245-.53.008-1.06,0-1.6,0v9.15h4.6c.141-1.3-.389-2.743,1.064-3.556,1.481-.829,2.382.321,3.445,1.185Zm2.473.047c0,2.9-.009,5.75.018,8.6a1.084,1.084,0,0,0,.413.628c.965.861,1.952,1.7,2.926,2.546,1.429,1.247,1.437,2.421.026,3.654-.953.833-1.9,1.679-2.881,2.475a1.326,1.326,0,0,0-.514,1.173c.018,3.853.009,7.705.011,11.558,0,2.347,1.241,3.591,3.581,3.592q17.013,0,34.026,0c2.389,0,3.617-1.236,3.617-3.638q0-16.973,0-33.946c0-2.406-1.225-3.641-3.612-3.641H46.15c-.613,5.514-1.712,6.612-7.021,7m9.016-28.53-6.321,5.447,6.205,5.336a1.1,1.1,0,0,0,.095-.2c.008-.565.009-1.13.022-1.7.023-1,.437-1.418,1.438-1.423,2.155-.01,4.309,0,6.464,0h5.52a3.057,3.057,0,0,0-.059-.366,5.228,5.228,0,0,0-4.981-3.67c-2.316-.021-4.633,0-6.949-.009-1,0-1.413-.43-1.433-1.428-.012-.586,0-1.173,0-1.993M34.6,54.3c0,.678,0,1.177,0,1.677,0,1.37-.359,1.736-1.7,1.737q-5.411,0-10.823,0h-.861a5.158,5.158,0,0,0,5.01,4.034c2.288.026,4.577,0,6.865.01,1.086,0,1.5.428,1.511,1.521.006.575,0,1.15,0,1.9l6.306-5.443L34.6,54.3m20.633-17.64V27.544H50.608c-.161,1.287.362,2.738-1.079,3.554s-2.382-.276-3.408-1.16v6.724ZM21.057,55.246h3.954V46.135H21.057Z"
            transform="translate(0)" />
        <path id="Path_13942" data-name="Path 13942"
            d="M49.22,58.619V65.4c-1.063-.864-1.964-2.014-3.445-1.185-1.452.813-.923,2.261-1.064,3.556h-4.6v-9.15c.536,0,1.067.006,1.6,0,.943-.014,1.467-.467,1.45-1.245-.017-.739-.528-1.174-1.435-1.176q-5.172-.01-10.344,0-6.425,0-12.849,0a3.2,3.2,0,0,1-3.533-3.558q0-17.051,0-34.1c0-2.3,1.249-3.564,3.525-3.564q17.091,0,34.183,0a3.184,3.184,0,0,1,3.516,3.493c0,3.879-.009,7.758.013,11.637a1.341,1.341,0,0,1-.534,1.167c-1.04.854-2.056,1.74-3.067,2.629a2.052,2.052,0,0,0,.022,3.387c1.014.887,2.062,1.735,3.043,2.656a1.67,1.67,0,0,1,.5,1.071c.035,3.933.027,7.866.02,11.8a3.164,3.164,0,0,1-3.383,3.384c-1.643.008-3.286,0-4.929,0-.934,0-1.5.477-1.491,1.22s.57,1.19,1.512,1.2c.4,0,.807,0,1.3,0M35.388,18.206a3.822,3.822,0,0,0-3.41,2.389c-.768,1.805-1.441,3.652-2.112,5.5a1.17,1.17,0,0,0,1.073,1.658,1.246,1.246,0,0,0,1.236-.965c.634-1.687,1.272-3.372,1.927-5.051a1.638,1.638,0,0,1,3.088-.008c.3.75.582,1.505.866,2.26q4.617,12.229,9.231,24.459c.076.2.14.407.219.607a.965.965,0,0,1-.542,1.4c-.649.262-1.1-.081-1.331-.686-.611-1.58-1.2-3.169-1.8-4.753-.46-1.21-.608-1.316-1.89-1.316q-5.9,0-11.8,0c-2.4,0-2.219-.109-3.046,2.1-.481,1.285-.972,2.565-1.464,3.846-.236.614-.617,1.04-1.344.833-.613-.174-.814-.778-.55-1.526.071-.2.155-.4.231-.6q3-7.879,6-15.758c.338-.889.115-1.541-.588-1.83a1.205,1.205,0,0,0-1.633.865q-3.2,8.365-6.362,16.744a3.561,3.561,0,0,0-.175,1.659,3.381,3.381,0,0,0,2.933,2.913,3.42,3.42,0,0,0,3.587-2.069c.576-1.361,1.09-2.751,1.59-4.143a.781.781,0,0,1,.868-.618q5.415.03,10.831,0a.78.78,0,0,1,.875.61q.726,2.053,1.544,4.074a3.258,3.258,0,0,0,3.045,2.157,3.405,3.405,0,0,0,3.287-4.732c-1.613-4.364-3.269-8.713-4.911-13.067q-2.648-7.021-5.3-14.039a4.168,4.168,0,0,0-4.17-2.9m.256,23.458c1.616,0,3.232.007,4.848,0,1.325-.008,1.808-.7,1.34-1.949-1.644-4.38-3.306-8.752-4.948-13.133-.231-.616-.588-1.054-1.271-1.041a1.315,1.315,0,0,0-1.206,1.026q-2.5,6.6-5.014,13.194c-.449,1.188.046,1.893,1.322,1.9,1.643.012,3.286,0,4.929,0"
            transform="translate(-12.563 -12.543)" fill="none" />
        <path id="Path_13943" data-name="Path 13943"
            d="M241.5,248.526c5.309-.386,6.407-1.485,7.021-7h30.59c2.387,0,3.612,1.235,3.612,3.641q0,16.973,0,33.946c0,2.4-1.228,3.638-3.617,3.638q-17.013,0-34.026,0c-2.34,0-3.58-1.245-3.581-3.592,0-3.852.008-7.705-.011-11.558a1.326,1.326,0,0,1,.514-1.173c.984-.8,1.927-1.642,2.881-2.475,1.411-1.233,1.4-2.407-.026-3.654-.974-.85-1.961-1.685-2.926-2.546a1.084,1.084,0,0,1-.413-.628c-.027-2.85-.018-5.7-.018-8.6m29.218,24c-.022.143-.013.205-.039.24-.131.171-.263.342-.409.5-3.269,3.5-7.264,4.5-11.851,3.426-.974-.228-1.616.03-1.82.793-.189.708.234,1.278,1.161,1.54a14.189,14.189,0,0,0,7.966-.1c3.986-1.162,6.651-3.925,8.794-7.314a1.353,1.353,0,0,0,.107-1.646,1.367,1.367,0,0,0-1.532-.412c-1.986.353-3.968.742-5.966,1.007a15.249,15.249,0,0,1-5.941-.116,2.928,2.928,0,0,1-2.4-2.518,3.189,3.189,0,0,1,1.741-3.353,4.562,4.562,0,0,1,3.208-.482c.966.217,1.9.562,2.851.865a1.586,1.586,0,0,0,2.3-1.073q1.057-2.791,2.072-5.6c.507-1.405-.231-2.364-1.724-2.244-1.717.138-3.43.39-5.149.431a6.867,6.867,0,0,1-2.88-.48,1.669,1.669,0,0,1-.057-3.041,3.387,3.387,0,0,1,1.443-.427,8.975,8.975,0,0,1,4.315.842c1.2.532,1.96.062,1.978-1.243.02-1.454-.034-2.911.02-4.363a1.833,1.833,0,0,0-1.169-1.9A11.258,11.258,0,0,0,254.044,249a8.19,8.19,0,0,0-1.491,7.4,20.51,20.51,0,0,0,1.348,3c-.124.1-.294.23-.459.366a10.86,10.86,0,0,0-1.518,15.5,1.261,1.261,0,0,0,1.833.348c.574-.459.578-1.127.068-1.859a13.89,13.89,0,0,1-1.289-2.04,8.463,8.463,0,0,1,3.763-10.956c1.168-.66,1.293-1.527.339-2.35a5.389,5.389,0,0,1-1.656-6.057c1.327-3.887,6.558-6.457,11.083-4.547.151.064.361.231.366.358.034.788.017,1.578.017,2.382-.82-.152-1.5-.324-2.193-.395a12.674,12.674,0,0,0-2.1-.047,4.628,4.628,0,0,0-4.337,3.879,4.251,4.251,0,0,0,3.377,4.652,11.793,11.793,0,0,0,3.109.258c1.278-.025,2.552-.206,3.964-.332l-1.442,3.89c-.5-.164-.91-.293-1.315-.43a8.162,8.162,0,0,0-4.221-.277,5.857,5.857,0,0,0-4.954,5.649c-.025,2.864,1.72,4.88,4.772,5.518a22.622,22.622,0,0,0,7.633-.1c.651-.085,1.3-.184,1.974-.28"
            transform="translate(-202.372 -202.403)" fill="none" />
        <path id="Path_13944" data-name="Path 13944"
            d="M264.52,108.6c0,.819-.01,1.406,0,1.993.02,1,.436,1.424,1.433,1.428,2.316.011,4.633-.011,6.949.009a5.228,5.228,0,0,1,4.981,3.67,3.056,3.056,0,0,1,.059.366h-5.52c-2.155,0-4.309-.007-6.464,0-1,0-1.415.426-1.438,1.423-.013.565-.014,1.13-.022,1.7a1.1,1.1,0,0,1-.095.2l-6.205-5.336,6.321-5.447"
            transform="translate(-216.375 -91.013)" fill="#fff" />
        <path id="Path_13945" data-name="Path 13945"
            d="M144.35,335.224l6.306,5.432L144.35,346.1c0-.745.005-1.32,0-1.9-.011-1.093-.426-1.517-1.511-1.521-2.288-.008-4.577.016-6.865-.01a5.158,5.158,0,0,1-5.01-4.034h.861q5.411,0,10.823,0c1.344,0,1.7-.367,1.7-1.737,0-.5,0-1,0-1.677"
            transform="translate(-109.749 -280.923)" fill="#fff" />
        <path id="Path_13946" data-name="Path 13946"
            d="M293.837,179.156h-9.113v-6.724c1.025.884,1.953,1.983,3.408,1.16s.918-2.267,1.079-3.554h4.626Z"
            transform="translate(-238.603 -142.494)" fill="#fff" />
        <rect id="Rectangle_2490" data-name="Rectangle 2490" width="3.954" height="9.111"
            transform="translate(21.057 46.135)" fill="#fff" />
        <path id="Path_13947" data-name="Path 13947"
            d="M67.421,34.956a4.168,4.168,0,0,1,4.17,2.9q2.658,7.017,5.3,14.039c1.642,4.354,3.3,8.7,4.911,13.066A3.406,3.406,0,0,1,78.52,69.7a3.258,3.258,0,0,1-3.045-2.157q-.819-2.018-1.544-4.074a.78.78,0,0,0-.875-.61q-5.416.028-10.831,0a.782.782,0,0,0-.868.618c-.5,1.392-1.013,2.781-1.59,4.143a3.42,3.42,0,0,1-3.587,2.069,3.382,3.382,0,0,1-2.933-2.913,3.561,3.561,0,0,1,.175-1.659q3.147-8.385,6.362-16.744a1.205,1.205,0,0,1,1.633-.865c.7.289.926.941.588,1.83q-3,7.881-6,15.758c-.077.2-.16.4-.231.6-.264.748-.063,1.352.55,1.526.727.207,1.108-.22,1.344-.833.492-1.28.983-2.561,1.464-3.846.827-2.211.642-2.106,3.046-2.1q5.9.009,11.8,0c1.281,0,1.43.106,1.89,1.316.6,1.584,1.192,3.172,1.8,4.753.234.605.682.948,1.331.686a.965.965,0,0,0,.542-1.4c-.079-.2-.143-.406-.219-.607q-4.615-12.23-9.231-24.459c-.285-.755-.57-1.51-.866-2.26a1.638,1.638,0,0,0-3.088.008c-.655,1.679-1.292,3.364-1.927,5.051a1.245,1.245,0,0,1-1.236.965A1.17,1.17,0,0,1,61.9,42.842c.672-1.844,1.344-3.692,2.112-5.5a3.822,3.822,0,0,1,3.41-2.389"
            transform="translate(-44.597 -29.294)" />
        <path id="Path_13948" data-name="Path 13948"
            d="M109.312,96.346c-1.643,0-3.286.009-4.929,0-1.276-.009-1.771-.714-1.322-1.9q2.5-6.6,5.013-13.194a1.315,1.315,0,0,1,1.206-1.026c.684-.012,1.04.426,1.271,1.042,1.641,4.381,3.3,8.753,4.947,13.133.469,1.248-.015,1.941-1.34,1.949-1.616.009-3.232,0-4.848,0m3.41-2.456-3.417-9.039L105.87,93.89Z"
            transform="translate(-86.231 -67.226)" />
        <path id="Path_13949" data-name="Path 13949"
            d="M311.386,289.184c-.675.1-1.323.2-1.974.28a22.623,22.623,0,0,1-7.633.1c-3.052-.638-4.8-2.654-4.772-5.518a5.857,5.857,0,0,1,4.954-5.649,8.162,8.162,0,0,1,4.221.277c.406.137.814.266,1.315.43l1.442-3.89c-1.412.126-2.686.307-3.964.332a11.8,11.8,0,0,1-3.109-.258,4.251,4.251,0,0,1-3.377-4.652,4.628,4.628,0,0,1,4.337-3.879,12.676,12.676,0,0,1,2.1.047c.692.071,1.374.242,2.193.395,0-.8.017-1.595-.017-2.383-.005-.127-.215-.294-.366-.358-4.525-1.91-9.756.66-11.083,4.547a5.389,5.389,0,0,0,1.656,6.057c.954.823.829,1.69-.339,2.35a8.463,8.463,0,0,0-3.763,10.956,13.888,13.888,0,0,0,1.289,2.04c.509.732.506,1.4-.068,1.859a1.261,1.261,0,0,1-1.833-.348,10.86,10.86,0,0,1,1.518-15.5c.165-.137.335-.267.459-.366a20.518,20.518,0,0,1-1.348-3,8.19,8.19,0,0,1,1.491-7.4,11.259,11.259,0,0,1,13.688-3.138,1.833,1.833,0,0,1,1.169,1.9c-.054,1.453,0,2.909-.02,4.363-.018,1.305-.777,1.775-1.978,1.243a8.976,8.976,0,0,0-4.315-.842,3.388,3.388,0,0,0-1.443.427,1.669,1.669,0,0,0,.057,3.041,6.866,6.866,0,0,0,2.88.48c1.719-.041,3.432-.292,5.149-.431,1.493-.12,2.231.839,1.724,2.244q-1.013,2.807-2.072,5.6a1.586,1.586,0,0,1-2.3,1.073c-.946-.3-1.885-.648-2.851-.865a4.562,4.562,0,0,0-3.208.482,3.189,3.189,0,0,0-1.741,3.353,2.928,2.928,0,0,0,2.4,2.518,15.247,15.247,0,0,0,5.941.116c2-.265,3.98-.654,5.966-1.007a1.367,1.367,0,0,1,1.532.412,1.353,1.353,0,0,1-.107,1.646c-2.143,3.389-4.808,6.152-8.794,7.314a14.189,14.189,0,0,1-7.966.1c-.927-.261-1.351-.832-1.161-1.54.2-.763.846-1.021,1.82-.793,4.587,1.072,8.582.07,11.851-3.426.147-.157.279-.328.409-.5.027-.035.018-.1.04-.24"
            transform="translate(-243.038 -219.056)" />
        <path id="Path_13950" data-name="Path 13950"
            d="M128.091,117.846h-6.852l3.435-9.039,3.417,9.039"
            transform="translate(-101.6 -91.182)" fill="#fff" />
    </g>
</svg>
  