<svg id="Group_10188" data-name="Group 10188" xmlns="http://www.w3.org/2000/svg" width="26.72" height="26.719" viewBox="0 0 26.72 26.719">
    <g id="Group_335" data-name="Group 335" transform="translate(0 0)">
      <path id="Path_202" data-name="Path 202" d="M13.37,26.719q-.639,0-1.287-.062A13.374,13.374,0,0,1,.062,12.083l.651.063-.651-.063a13.359,13.359,0,0,1,23.6-7.224,13.359,13.359,0,0,1-10.3,21.86M13.338,1.309a12.078,12.078,0,1,0,1.173.056q-.589-.057-1.173-.056" transform="translate(0 0)" fill="#fff"/>
      <path id="Path_203" data-name="Path 203" d="M119.385,71.648c-.14,1.075-.273,2.106-.409,3.148h-2.661c0,1.155,0,6.961,0,8.043v.185h-3.263V74.784h-2.669V71.65h2.686a24.143,24.143,0,0,1,.1-3.329c.543-3.2,3.7-3.3,6.306-2.945v2.806c-3.778-.195-3.094.49-3.181,3.465.148,0,2.339,0,3.091,0" transform="translate(-101.569 -60.026)" fill="#fff" fill-rule="evenodd"/>
    </g>
  </svg>
  