<svg id="Group_8544" data-name="Group 8544" xmlns="http://www.w3.org/2000/svg"
    xmlns:xlink="http://www.w3.org/1999/xlink" width="74.82" height="74.86"
    viewBox="0 0 74.82 74.86">
    <defs>
        <clipPath id="clip-path">
            <rect id="Rectangle_2288" data-name="Rectangle 2288" width="74.82" height="74.86"
                fill="none" />
        </clipPath>
    </defs>
    <g id="Group_8539" data-name="Group 8539" clip-path="url(#clip-path)">
        <path id="Path_12813" data-name="Path 12813"
            d="M0,40.488V34.349c.048-.072.128-.14.139-.217.155-1.133.279-2.27.453-3.4a33.986,33.986,0,0,1,2.976-9.358A30.663,30.663,0,0,1,8.61,13.56,59.266,59.266,0,0,1,14.1,8.117a33.781,33.781,0,0,1,9.458-5.495A37.327,37.327,0,0,1,31.8.43c.853-.123,1.7-.285,2.55-.43H40.2c.072.046.14.12.219.134,1.777.3,3.561.558,5.331.892A34.28,34.28,0,0,1,57.936,6.134,37.025,37.025,0,0,1,65.8,13.083a35.9,35.9,0,0,1,4.6,6.7,37.772,37.772,0,0,1,3.754,10.75,50.163,50.163,0,0,1,.66,6.921,29.632,29.632,0,0,1-.264,4.025,34.507,34.507,0,0,1-1.719,7.964A36.493,36.493,0,0,1,65.3,62.354a35.936,35.936,0,0,1-7.059,6.159,40.04,40.04,0,0,1-7.723,3.95,37.506,37.506,0,0,1-19.8,1.81,39.11,39.11,0,0,1-9.116-2.887,37.673,37.673,0,0,1-9.561-6.378A36.763,36.763,0,0,1,6.71,58.857a36.123,36.123,0,0,1-4.445-8.463,32.774,32.774,0,0,1-1.97-8.121C.236,41.674.1,41.083,0,40.488m40.917,7.464a6.453,6.453,0,0,1-1.827-.66,58.67,58.67,0,0,1-5.6-4.584c-2-1.969-3.806-4.151-5.614-6.309a3.436,3.436,0,0,1,.3-4.88c1.271-1.169,2.461-2.428,3.675-3.659.91-.923.987-1.783.127-2.665-2.211-2.265-4.466-4.487-6.7-6.725a1.8,1.8,0,0,0-2.512-.06,43.176,43.176,0,0,0-3.349,3.784,8.909,8.909,0,0,0-1.388,7.957,30.549,30.549,0,0,0,1.839,4.679,38.376,38.376,0,0,0,5.764,8.705,44.739,44.739,0,0,0,6.421,6.233A35.042,35.042,0,0,0,42.3,55.687a24.924,24.924,0,0,0,4.55,1.269,9.343,9.343,0,0,0,4.92-.925c2.083-.9,3.5-2.6,5.011-4.182a1.364,1.364,0,0,0-.022-1.733,1.665,1.665,0,0,0-.2-.21c-2.179-2.22-4.368-4.431-6.533-6.665a1.849,1.849,0,0,0-3-.026c-1.116,1.22-2.35,2.332-3.5,3.525a3.824,3.824,0,0,1-2.614,1.213"
            fill="#fff" />
        <path id="Path_12814" data-name="Path 12814"
            d="M143.727,152.436a3.824,3.824,0,0,0,2.614-1.213c1.147-1.193,2.381-2.3,3.5-3.525a1.849,1.849,0,0,1,3,.026c2.165,2.234,4.354,4.445,6.533,6.665a1.665,1.665,0,0,1,.2.21,1.364,1.364,0,0,1,.022,1.733c-1.507,1.579-2.928,3.279-5.011,4.182a9.343,9.343,0,0,1-4.92.925,24.922,24.922,0,0,1-4.55-1.269,35.042,35.042,0,0,1-10.253-5.92,44.74,44.74,0,0,1-6.421-6.233,38.376,38.376,0,0,1-5.764-8.705,30.551,30.551,0,0,1-1.839-4.679,8.909,8.909,0,0,1,1.388-7.957,43.171,43.171,0,0,1,3.35-3.784,1.8,1.8,0,0,1,2.512.06c2.238,2.238,4.493,4.46,6.7,6.725.861.882.783,1.742-.127,2.665-1.214,1.231-2.4,2.49-3.675,3.659a3.436,3.436,0,0,0-.3,4.88c1.808,2.158,3.61,4.34,5.614,6.309a58.675,58.675,0,0,0,5.6,4.584,6.452,6.452,0,0,0,1.827.66"
            transform="translate(-102.811 -104.484)" fill="#070607" />
    </g>
</svg>
  