<svg id="Group_3715" data-name="Group 3715" xmlns="http://www.w3.org/2000/svg"
    xmlns:xlink="http://www.w3.org/1999/xlink" width="974.325" height="109.055"
    viewBox="0 0 974.325 109.055">
    <defs>
        <clipPath id="clip-path">
            <rect id="Rectangle_1418" data-name="Rectangle 1418" width="974.325" height="109.055"
                fill="none" />
        </clipPath>
        <clipPath id="clip-path-2">
            <rect id="Rectangle_1421" data-name="Rectangle 1421" width="82.1" height="82.099"
                fill="none" />
        </clipPath>
        <clipPath id="clip-path-3">
            <rect id="Rectangle_1447" data-name="Rectangle 1447" width="905.325" height="109.055"
                fill="none" />
        </clipPath>
    </defs>
    <g id="Group_3710" data-name="Group 3710">
        <g id="Group_3709" data-name="Group 3709" clip-path="url(#clip-path)">
            <path id="Path_4988" data-name="Path 4988"
                d="M535.96,74.988h0a14.4,14.4,0,1,1,14.4-14.4A14.4,14.4,0,0,1,535.96,74.988Z"
                transform="translate(-110.266 -9.764)" fill="none" stroke="#fff"
                stroke-miterlimit="10" stroke-width="2.018" />
            <path id="Path_4989" data-name="Path 4989"
                d="M543.281,69.847H532.591a2.684,2.684,0,0,1-2.684-2.684V56.474a2.683,2.683,0,0,1,2.684-2.683H543.28a2.683,2.683,0,0,1,2.683,2.683V67.165a2.681,2.681,0,0,1-2.681,2.681"
                transform="translate(-112.031 -11.372)" fill="#fff" />
            <path id="Path_4990" data-name="Path 4990"
                d="M593.024,74.988h0a14.4,14.4,0,1,1,14.4-14.4A14.4,14.4,0,0,1,593.024,74.988Z"
                transform="translate(-122.331 -9.764)" fill="none" stroke="#fff"
                stroke-miterlimit="10" stroke-width="2.018" />
            <path id="Path_4991" data-name="Path 4991"
                d="M588.3,67.109a6.269,6.269,0,0,0,4.253-1.245,3.3,3.3,0,0,1-2.785-2.116,4.425,4.425,0,0,0,1.143-.112,3.165,3.165,0,0,1-2.214-2.957c.416.037.733.308,1.233.272a3.208,3.208,0,0,1-.823-4.059,8.885,8.885,0,0,0,4.569,2.915c.1.025.2.052.3.075a6.025,6.025,0,0,0,1.3.3c.489-.061,0-.622.125-1.351a2.983,2.983,0,0,1,4.731-1.97,1.333,1.333,0,0,0,1.5.147c.278-.124.56-.242.89-.384-.076.651-.572,1-.969,1.488a2.214,2.214,0,0,0,1.233-.159,2.069,2.069,0,0,1-.808.988,1.158,1.158,0,0,0-.472.972c-.2,6.541-7.636,11.6-12.718,7.574-.493-.39-.013,0-.484-.382"
                transform="translate(-124.378 -11.898)" fill="#fcfdff" />
            <path id="Path_4992" data-name="Path 4992"
                d="M478.9,74.988h0a14.4,14.4,0,1,1,14.4-14.4A14.4,14.4,0,0,1,478.9,74.988Z"
                transform="translate(-98.202 -9.764)" fill="none" stroke="#fff"
                stroke-miterlimit="10" stroke-width="2.018" />
            <path id="Path_4993" data-name="Path 4993"
                d="M482.065,62.213v7.182h-3.3V62.213h-2.74V59.3h2.74V58.239c0-3.935,1.641-6,5.119-6a5.711,5.711,0,0,1,1.918.311v2.881a6.594,6.594,0,0,0-1.519-.176,1.894,1.894,0,0,0-1.628.677,3.605,3.605,0,0,0-.588,2.345V59.3H485.8l-1,2.911Z"
                transform="translate(-100.639 -11.044)" fill="#fff" />
            <path id="Path_4994" data-name="Path 4994"
                d="M650.089,74.988h0a14.4,14.4,0,1,1,14.4-14.4A14.4,14.4,0,0,1,650.089,74.988Z"
                transform="translate(-134.395 -9.764)" fill="none" stroke="#fff"
                stroke-miterlimit="10" stroke-width="2.018" />
            <rect id="Rectangle_1416" data-name="Rectangle 1416" width="2.9" height="9.248"
                transform="translate(510.113 47.322)" fill="#fff" />
            <path id="Path_4995" data-name="Path 4995"
                d="M658.859,59.74c-.11-.012-.222-.021-.336-.025a3.384,3.384,0,0,0-2.859,1.308,1.964,1.964,0,0,0-.126.181V59.967h-2.775v9.248h2.9V64.871A3.772,3.772,0,0,1,655.929,63a1.415,1.415,0,0,1,1.29-.723,1.538,1.538,0,0,1,1.639,1.587v5.392h2.9V63.225c0-2.064-1.049-3.284-2.9-3.485"
                transform="translate(-138.005 -12.624)" fill="#fff" />
            <path id="Path_4996" data-name="Path 4996"
                d="M649.942,55.907a1.682,1.682,0,1,1-1.681-1.681,1.681,1.681,0,0,1,1.681,1.681"
                transform="translate(-136.698 -11.464)" fill="#fff" />
            <path id="Path_4997" data-name="Path 4997"
                d="M542.151,63.086a3.181,3.181,0,1,0-3.181,3.181,3.181,3.181,0,0,0,3.181-3.181"
                transform="translate(-113.275 -12.665)" fill="#172fe6" />
            <path id="Path_4998" data-name="Path 4998"
                d="M546.084,57.32a1.093,1.093,0,1,0-1.093,1.093,1.093,1.093,0,0,0,1.093-1.093"
                transform="translate(-114.989 -11.887)" fill="#172fe6" />
            <line id="Line_464" data-name="Line 464" x1="833.315" transform="translate(0 102.026)"
                fill="#fff" />
            <line id="Line_465" data-name="Line 465" x1="833.315" transform="translate(0 102.026)"
                fill="none" stroke="#fff" stroke-miterlimit="10" stroke-width="2.049" />
            <line id="Line_466" data-name="Line 466" x1="905.325" transform="translate(0 19.387)"
                fill="#fff" />
            <line id="Line_467" data-name="Line 467" x1="952.5" transform="translate(0 19.387)"
                fill="none" stroke="#fff" stroke-miterlimit="10" stroke-width="2.049" />
            <rect id="Rectangle_1417" data-name="Rectangle 1417" width="82.099" height="82.099"
                transform="translate(205.225 19.581)" fill="#d9cdf7" />
        </g>
    </g>
    <g id="Group_3712" data-name="Group 3712" transform="translate(205.225 19.581)">
        <g id="Group_3711" data-name="Group 3711" clip-path="url(#clip-path-2)">
            <path id="Path_4999" data-name="Path 4999"
                d="M330.1,67.592V57.158h-9.365V44.652H310.228V57.158H300.112V44.652H289.605V57.158H279.311V67.592h10.294V77.637H279.311V88.071h10.294v9.023h10.507V88.071h10.116v9.023h10.508V88.071H330.1V77.637h-9.365V67.592ZM310.228,77.637H300.112V67.592h10.116Z"
                transform="translate(-264.276 -29.021)" fill="#9a2cf5" />
            <path id="Path_5000" data-name="Path 5000"
                d="M330.1,67.592V57.158h-9.365V44.652H310.228V57.158H300.112V44.652H289.605V57.158H279.311V67.592h10.294V77.637H279.311V88.071h10.294v9.023h10.507V88.071h10.116v9.023h10.508V88.071H330.1V77.637h-9.365V67.592ZM310.228,77.637H300.112V67.592h10.116Z"
                transform="translate(-264.276 -29.021)" fill="none" stroke="#000"
                stroke-miterlimit="10" stroke-width="2" />
            <rect id="Rectangle_1419" data-name="Rectangle 1419" width="18.823" height="18.823"
                transform="translate(-25.1 -11.906)" fill="lime" />
            <rect id="Rectangle_1420" data-name="Rectangle 1420" width="18.823" height="18.823"
                transform="translate(-25.1 -11.906)" fill="none" stroke="#000"
                stroke-miterlimit="10" stroke-width="2" />
        </g>
    </g>
    <g id="Group_3714" data-name="Group 3714">
        <g id="Group_3713" data-name="Group 3713" clip-path="url(#clip-path-3)">
            <rect id="Rectangle_1422" data-name="Rectangle 1422" width="82.099" height="82.099"
                transform="translate(205.225 19.581)" fill="none" stroke="#fff"
                stroke-miterlimit="10" stroke-width="2" />
            <rect id="Rectangle_1423" data-name="Rectangle 1423" width="82.099" height="82.099"
                transform="translate(123.731 19.581)" fill="#a5d7e5" />
            <rect id="Rectangle_1424" data-name="Rectangle 1424" width="82.099" height="82.099"
                transform="translate(123.731 19.581)" fill="none" stroke="#fff"
                stroke-miterlimit="10" stroke-width="2" />
            <path id="Path_5001" data-name="Path 5001"
                d="M173.4,68.907a28.274,28.274,0,1,0,28.275-28.186A28.23,28.23,0,0,0,173.4,68.907"
                transform="translate(-36.659 -8.609)" fill="#01aaf9" />
            <path id="Path_5002" data-name="Path 5002"
                d="M173.4,68.907a28.274,28.274,0,1,0,28.275-28.186A28.23,28.23,0,0,0,173.4,68.907"
                transform="translate(-36.659 -8.609)" fill="none" stroke="#000"
                stroke-miterlimit="10" stroke-width="2" />
            <path id="Path_5003" data-name="Path 5003"
                d="M224.335,70.956a20.607,20.607,0,1,1-20.606-20.542,20.574,20.574,0,0,1,20.606,20.542"
                transform="translate(-38.715 -10.658)" fill="#a5d7e5" />
            <ellipse id="Ellipse_64" data-name="Ellipse 64" cx="20.606" cy="20.542" rx="20.606"
                ry="20.542" transform="translate(144.407 39.756)" fill="none" stroke="#000"
                stroke-miterlimit="10" stroke-width="2" />
            <path id="Path_5004" data-name="Path 5004"
                d="M218.614,73.045a12.79,12.79,0,1,1-12.79-12.751,12.771,12.771,0,0,1,12.79,12.751"
                transform="translate(-40.811 -12.747)" fill="#0afdb5" />
            <path id="Path_5005" data-name="Path 5005"
                d="M218.614,73.045a12.79,12.79,0,1,1-12.79-12.751A12.771,12.771,0,0,1,218.614,73.045Z"
                transform="translate(-40.811 -12.747)" fill="none" stroke="#000"
                stroke-miterlimit="10" stroke-width="2" />
            <path id="Path_5006" data-name="Path 5006"
                d="M211.333,75.7a2.842,2.842,0,1,1-2.842-2.833,2.838,2.838,0,0,1,2.842,2.833"
                transform="translate(-43.478 -15.406)" fill="#ffea00" />
            <path id="Path_5007" data-name="Path 5007"
                d="M211.333,75.7a2.842,2.842,0,1,1-2.842-2.833A2.838,2.838,0,0,1,211.333,75.7Z"
                transform="translate(-43.478 -15.406)" fill="none" stroke="#000"
                stroke-miterlimit="10" stroke-width="2" />
            <path id="Path_5008" data-name="Path 5008"
                d="M231.63,50.941c2.046-.117,9.627-2.378,12.359-6.788a45.7,45.7,0,0,1-5.39-.755Z"
                transform="translate(-48.971 -9.175)" fill="#ffea00" />
            <path id="Path_5009" data-name="Path 5009"
                d="M231.63,50.941c2.046-.117,9.627-2.378,12.359-6.788a45.7,45.7,0,0,1-5.39-.755Z"
                transform="translate(-48.971 -9.175)" fill="none" stroke="#000"
                stroke-miterlimit="10" stroke-width="2" />
            <path id="Path_5010" data-name="Path 5010"
                d="M231.323,49.152c-.066-2.048,1.509-9.8,5.658-12.915a45.768,45.768,0,0,0,1.233,5.3Z"
                transform="translate(-48.905 -7.661)" fill="#ffea00" />
            <path id="Path_5011" data-name="Path 5011"
                d="M231.323,49.152c-.066-2.048,1.509-9.8,5.658-12.915a45.768,45.768,0,0,0,1.233,5.3Z"
                transform="translate(-48.905 -7.661)" fill="none" stroke="#000"
                stroke-miterlimit="10" stroke-width="2" />
            <line id="Line_468" data-name="Line 468" x1="24.144" y2="25.914"
                transform="translate(165.13 34.407)" fill="none" stroke="#000"
                stroke-linecap="round" stroke-linejoin="round" stroke-width="2" />
            <rect id="Rectangle_1425" data-name="Rectangle 1425" width="82.099" height="82.099"
                transform="translate(43.471 19.581)" fill="#ffb2a6" />
            <rect id="Rectangle_1426" data-name="Rectangle 1426" width="82.099" height="82.099"
                transform="translate(43.471 19.581)" fill="none" stroke="#000"
                stroke-miterlimit="10" stroke-width="2" />
            <rect id="Rectangle_1427" data-name="Rectangle 1427" width="82.099" height="82.099"
                transform="translate(43.471 19.581)" fill="#fd3901" />
            <rect id="Rectangle_1428" data-name="Rectangle 1428" width="82.099" height="82.099"
                transform="translate(43.471 19.581)" fill="none" stroke="#fff" stroke-width="2" />
            <rect id="Rectangle_1429" data-name="Rectangle 1429" width="47.012" height="32.166"
                transform="translate(61.946 40.194)" fill="#0afd02" />
            <rect id="Rectangle_1430" data-name="Rectangle 1430" width="47.012" height="32.166"
                transform="translate(61.946 40.194)" fill="none" stroke="#000" stroke-width="2" />
            <line id="Line_469" data-name="Line 469" x2="29.678"
                transform="translate(79.858 81.978)" fill="none" stroke="#000"
                stroke-miterlimit="10" stroke-width="2" />
            <line id="Line_470" data-name="Line 470" x2="7.993" transform="translate(62.136 81.978)"
                fill="none" stroke="#000" stroke-miterlimit="10" stroke-width="2" />
            <path id="Path_5012" data-name="Path 5012"
                d="M97.9,102.732a4.567,4.567,0,1,1-4.567-4.567,4.567,4.567,0,0,1,4.567,4.567"
                transform="translate(-18.767 -20.754)" fill="#ffea00" />
            <circle id="Ellipse_65" data-name="Ellipse 65" cx="4.567" cy="4.567" r="4.567"
                transform="translate(70.002 77.411)" fill="none" stroke="#000" stroke-width="2" />
            <path id="Path_5013" data-name="Path 5013" d="M114.169,70.024l-12.524,8.05v-16.1Z"
                transform="translate(-21.489 -13.102)" fill="#fd3901" />
            <path id="Path_5014" data-name="Path 5014" d="M114.169,70.024l-12.524,8.05v-16.1Z"
                transform="translate(-21.489 -13.102)" fill="none" stroke="#000" stroke-width="2" />
            <rect id="Rectangle_1431" data-name="Rectangle 1431" width="82.099" height="82.099"
                transform="translate(370.515 19.581)" fill="#fd3901" />
            <rect id="Rectangle_1432" data-name="Rectangle 1432" width="82.099" height="82.099"
                transform="translate(370.515 19.581)" fill="none" stroke="#fff" stroke-width="2" />
            <path id="Path_5015" data-name="Path 5015"
                d="M539.541,96.987H489.012a4.854,4.854,0,0,1-4.854-4.854V46.147a4.854,4.854,0,0,1,4.854-4.854h50.529a4.854,4.854,0,0,1,4.854,4.854V92.134a4.854,4.854,0,0,1-4.854,4.854"
                transform="translate(-102.359 -8.73)" fill="#0afd02" />
            <rect id="Rectangle_1433" data-name="Rectangle 1433" width="60.237" height="55.694"
                rx="6.155" transform="translate(381.799 32.563)" fill="none" stroke="#000"
                stroke-width="2" />
            <path id="Path_5016" data-name="Path 5016"
                d="M510.069,74.91a9.31,9.31,0,1,0,9.31-9.31,9.309,9.309,0,0,0-9.31,9.31"
                transform="translate(-107.837 -13.869)" fill="#0afd02" />
            <path id="Path_5017" data-name="Path 5017"
                d="M510.069,74.91a9.31,9.31,0,1,0,9.31-9.31,9.309,9.309,0,0,0-9.31,9.31"
                transform="translate(-107.837 -13.869)" fill="none" stroke="#1d1d1b"
                stroke-miterlimit="10" stroke-width="2" />
            <path id="Path_5018" data-name="Path 5018"
                d="M512.9,75.39a7.076,7.076,0,1,0,7.077-7.076h0A7.076,7.076,0,0,0,512.9,75.39"
                transform="translate(-108.436 -14.443)" fill="#fff" />
            <path id="Path_5019" data-name="Path 5019"
                d="M512.9,75.39a7.076,7.076,0,1,0,7.077-7.076h0A7.076,7.076,0,0,0,512.9,75.39"
                transform="translate(-108.436 -14.443)" fill="none" stroke="#1d1d1b"
                stroke-miterlimit="10" stroke-width="2" />
            <path id="Path_5020" data-name="Path 5020"
                d="M515.869,76.138a4.735,4.735,0,1,0,4.736-4.735h0a4.735,4.735,0,0,0-4.735,4.735"
                transform="translate(-109.064 -15.096)" fill="#0afd02" />
            <path id="Path_5021" data-name="Path 5021"
                d="M515.869,76.138a4.735,4.735,0,1,0,4.736-4.735h0a4.735,4.735,0,0,0-4.735,4.735"
                transform="translate(-109.064 -15.096)" fill="none" stroke="#1d1d1b"
                stroke-miterlimit="10" stroke-width="2" />
            <path id="Path_5022" data-name="Path 5022"
                d="M515.869,76.138a4.735,4.735,0,1,0,4.736-4.735h0A4.735,4.735,0,0,0,515.869,76.138Z"
                transform="translate(-109.064 -15.096)" fill="none" stroke="#1d1d1b"
                stroke-miterlimit="10" stroke-width="2" />
            <path id="Path_5023" data-name="Path 5023"
                d="M529.986,58.906a18.357,18.357,0,1,0,5.448,13.049,18.358,18.358,0,0,0-5.448-13.049m-12.845-2.735c2.367,0,4.286.916,4.286,3.42,0,3.589-1.92,7.967-4.286,7.967s-4.285-4.378-4.285-7.967c0-2.329,1.919-3.42,4.285-3.42m-15.578,10.77c.808-2.223,2.325-3.715,4.679-2.86,3.374,1.222,6.834,4.522,6.027,6.745s-5.575,2.537-8.95,1.315c-2.191-.8-2.562-2.972-1.756-5.2m11.574,18.3c-1.372,1.885-3.564,1.638-5.481.247S504.73,82.226,506.2,80.2c2.109-2.9,6.234-5.317,8.151-3.926s.892,6.063-1.217,8.966m13.576.247c-1.913,1.391-4.109,1.638-5.477-.247-2.112-2.9-3.133-7.574-1.217-8.966s6.042,1.022,8.151,3.926c1.471,2.025.459,3.9-1.457,5.287m4.115-13.347c-3.374,1.222-8.145.912-8.952-1.315s2.654-5.523,6.029-6.745c2.352-.855,3.87.636,4.677,2.86s.439,4.4-1.753,5.2"
                transform="translate(-105.438 -11.332)" fill="#fd3901" />
            <path id="Path_5024" data-name="Path 5024"
                d="M529.986,58.906a18.357,18.357,0,1,0,5.448,13.049,18.358,18.358,0,0,0-5.448-13.049m-12.845-2.735c2.367,0,4.286.916,4.286,3.42,0,3.589-1.92,7.967-4.286,7.967s-4.285-4.378-4.285-7.967c0-2.329,1.919-3.42,4.285-3.42m-15.578,10.77c.808-2.223,2.325-3.715,4.679-2.86,3.374,1.222,6.834,4.522,6.027,6.745s-5.575,2.537-8.95,1.315c-2.191-.8-2.562-2.972-1.756-5.2m11.574,18.3c-1.372,1.885-3.564,1.638-5.481.247S504.73,82.226,506.2,80.2c2.109-2.9,6.234-5.317,8.151-3.926s.892,6.063-1.217,8.966m13.576.247c-1.913,1.391-4.109,1.638-5.477-.247-2.112-2.9-3.133-7.574-1.217-8.966s6.042,1.022,8.151,3.926c1.471,2.025.459,3.9-1.457,5.287m4.115-13.347c-3.374,1.222-8.145.912-8.952-1.315s2.654-5.523,6.029-6.745c2.352-.855,3.87.636,4.677,2.86s.439,4.4-1.753,5.2"
                transform="translate(-105.438 -11.332)" fill="none" stroke="#1d1d1b"
                stroke-miterlimit="10" stroke-width="2" />
            <path id="Path_5025" data-name="Path 5025"
                d="M507.49,74.364a11.314,11.314,0,0,0,3.814,8.484c.054.048.109.1.165.143a11.344,11.344,0,1,0-3.978-8.627"
                transform="translate(-107.292 -13.324)" fill="#fff" />
            <path id="Path_5026" data-name="Path 5026"
                d="M507.49,74.364a11.314,11.314,0,0,0,3.814,8.484c.054.048.109.1.165.143a11.344,11.344,0,1,0-3.978-8.627"
                transform="translate(-107.292 -13.324)" fill="none" stroke="#1d1d1b"
                stroke-miterlimit="10" stroke-width="2" />
            <path id="Path_5027" data-name="Path 5027"
                d="M510.069,74.91a9.31,9.31,0,1,0,9.31-9.31A9.309,9.309,0,0,0,510.069,74.91Z"
                transform="translate(-107.837 -13.869)" fill="none" stroke="#1d1d1b"
                stroke-miterlimit="10" stroke-width="2" />
            <path id="Path_5028" data-name="Path 5028"
                d="M512.9,75.39a7.076,7.076,0,1,0,7.077-7.076h0A7.076,7.076,0,0,0,512.9,75.39Z"
                transform="translate(-108.436 -14.443)" fill="none" stroke="#1d1d1b"
                stroke-miterlimit="10" stroke-width="2" />
            <path id="Path_5029" data-name="Path 5029"
                d="M529.986,58.905a18.358,18.358,0,1,0,5.448,13.049,18.358,18.358,0,0,0-5.448-13.049m-12.845-2.734c2.367,0,4.286.915,4.286,3.419,0,3.589-1.92,7.967-4.286,7.967s-4.285-4.378-4.285-7.967c0-2.329,1.919-3.419,4.285-3.419m-15.578,10.77c.808-2.223,2.325-3.715,4.679-2.86,3.374,1.222,6.835,4.522,6.028,6.746s-5.576,2.536-8.951,1.315c-2.191-.8-2.563-2.974-1.756-5.2Zm11.574,18.3c-1.373,1.885-3.564,1.638-5.481.247S504.73,82.225,506.2,80.2c2.109-2.9,6.235-5.317,8.151-3.926s.893,6.063-1.217,8.966Zm13.575.247c-1.913,1.391-4.109,1.638-5.477-.247-2.112-2.9-3.133-7.574-1.217-8.966s6.042,1.022,8.151,3.926c1.473,2.026.461,3.9-1.456,5.287Zm4.115-13.347c-3.374,1.222-8.145.912-8.952-1.315s2.654-5.523,6.029-6.745c2.352-.855,3.87.636,4.677,2.86s.438,4.4-1.753,5.2Z"
                transform="translate(-105.438 -11.332)" fill="#ffea00" />
            <path id="Path_5030" data-name="Path 5030"
                d="M529.986,58.905a18.358,18.358,0,1,0,5.448,13.049A18.358,18.358,0,0,0,529.986,58.905Zm-12.845-2.734c2.367,0,4.286.915,4.286,3.419,0,3.589-1.92,7.967-4.286,7.967s-4.285-4.378-4.285-7.967C512.856,57.261,514.774,56.171,517.141,56.171Zm-15.578,10.77c.808-2.223,2.325-3.715,4.679-2.86,3.374,1.222,6.835,4.522,6.028,6.746s-5.576,2.536-8.951,1.315c-2.191-.8-2.563-2.974-1.756-5.2Zm11.574,18.3c-1.373,1.885-3.564,1.638-5.481.247S504.73,82.225,506.2,80.2c2.109-2.9,6.235-5.317,8.151-3.926s.893,6.063-1.217,8.966Zm13.575.247c-1.913,1.391-4.109,1.638-5.477-.247-2.112-2.9-3.133-7.574-1.217-8.966s6.042,1.022,8.151,3.926c1.473,2.026.461,3.9-1.456,5.287Zm4.115-13.347c-3.374,1.222-8.145.912-8.952-1.315s2.654-5.523,6.029-6.745c2.352-.855,3.87.636,4.677,2.86s.438,4.4-1.753,5.2Z"
                transform="translate(-105.438 -11.332)" fill="none" stroke="#1d1d1b"
                stroke-miterlimit="10" stroke-width="2" />
            <path id="Path_5031" data-name="Path 5031"
                d="M524.328,76.042A3.19,3.19,0,0,1,518.3,77.5a3.15,3.15,0,0,1-.353-1.454,3.193,3.193,0,0,1,6.384,0"
                transform="translate(-109.502 -15.419)" fill="#020202" />
            <path id="Path_5032" data-name="Path 5032"
                d="M524.328,76.042A3.19,3.19,0,0,1,518.3,77.5a3.15,3.15,0,0,1-.353-1.454,3.193,3.193,0,0,1,6.384,0"
                transform="translate(-109.502 -15.419)" fill="none" stroke="#1d1d1b"
                stroke-miterlimit="10" stroke-width="2" />
            <path id="Path_5033" data-name="Path 5033" d="M447.214,107.041l-82.1-.7v-81.4l82.1.7Z"
                transform="translate(-77.192 -5.273)" fill="#ffea00" />
            <path id="Path_5034" data-name="Path 5034" d="M447.214,107.041l-82.1-.7v-81.4l82.1.7Z"
                transform="translate(-77.192 -5.273)" fill="none" stroke="#1d1d1b"
                stroke-miterlimit="10" stroke-width="1.627" />
            <rect id="Rectangle_1434" data-name="Rectangle 1434" width="82.099" height="82.099"
                transform="translate(287.898 19.581)" />
            <rect id="Rectangle_1435" data-name="Rectangle 1435" width="82.099" height="82.099"
                transform="translate(287.898 19.581)" fill="none" stroke="#fff"
                stroke-miterlimit="10" stroke-width="1.432" />
            <rect id="Rectangle_1436" data-name="Rectangle 1436" width="14.452" height="36.575"
                transform="translate(297.088 50.141)" fill="#01aaf9" />
            <rect id="Rectangle_1437" data-name="Rectangle 1437" width="14.452" height="36.575"
                transform="translate(297.088 50.141)" fill="none" stroke="#000"
                stroke-miterlimit="10" stroke-width="1.432" />
            <rect id="Rectangle_1438" data-name="Rectangle 1438" width="14.452" height="25.977"
                transform="translate(313.796 60.498)" fill="#01aaf9" />
            <rect id="Rectangle_1439" data-name="Rectangle 1439" width="14.452" height="25.977"
                transform="translate(313.796 60.498)" fill="none" stroke="#000"
                stroke-miterlimit="10" stroke-width="1.432" />
            <rect id="Rectangle_1440" data-name="Rectangle 1440" width="14.452" height="51.498"
                transform="translate(329.697 34.977)" fill="#97d9e7" />
            <rect id="Rectangle_1441" data-name="Rectangle 1441" width="14.452" height="51.498"
                transform="translate(329.697 34.977)" fill="none" stroke="#000"
                stroke-miterlimit="10" stroke-width="2.169" />
            <rect id="Rectangle_1442" data-name="Rectangle 1442" width="14.452" height="36.575"
                transform="translate(345.197 49.9)" fill="#0afdb5" />
            <rect id="Rectangle_1443" data-name="Rectangle 1443" width="14.452" height="36.575"
                transform="translate(345.197 49.9)" fill="none" stroke="#000" stroke-miterlimit="10"
                stroke-width="1.432" />
            <path id="Path_5035" data-name="Path 5035"
                d="M373.759,60.651H389.7L406.12,71.277l16.664-26.082h17.63"
                transform="translate(-79.019 -9.555)" fill="none" stroke="#fff" stroke-width="1.505" />
            <path id="Path_5036" data-name="Path 5036"
                d="M396.835,64.695a2.656,2.656,0,1,0-2.657,2.657,2.656,2.656,0,0,0,2.657-2.657"
                transform="translate(-82.775 -13.116)" fill="#ffea00" />
            <path id="Path_5037" data-name="Path 5037"
                d="M396.835,64.695a2.656,2.656,0,1,0-2.657,2.657A2.656,2.656,0,0,0,396.835,64.695Z"
                transform="translate(-82.775 -13.116)" fill="none" stroke="#000"
                stroke-width="1.505" />
            <path id="Path_5038" data-name="Path 5038"
                d="M416.741,77.251a2.656,2.656,0,1,0-2.657,2.657,2.657,2.657,0,0,0,2.657-2.657"
                transform="translate(-86.983 -15.77)" fill="#ffea00" />
            <path id="Path_5039" data-name="Path 5039"
                d="M416.741,77.251a2.656,2.656,0,1,0-2.657,2.657A2.657,2.657,0,0,0,416.741,77.251Z"
                transform="translate(-86.983 -15.77)" fill="none" stroke="#000" stroke-width="1.505" />
            <path id="Path_5040" data-name="Path 5040"
                d="M439.4,44.483a2.656,2.656,0,1,0-2.657,2.657,2.656,2.656,0,0,0,2.657-2.657"
                transform="translate(-91.774 -8.843)" fill="#ffea00" />
            <path id="Path_5041" data-name="Path 5041"
                d="M439.4,44.483a2.656,2.656,0,1,0-2.657,2.657A2.656,2.656,0,0,0,439.4,44.483Z"
                transform="translate(-91.774 -8.843)" fill="none" stroke="#000" stroke-width="1.505" />
            <rect id="Rectangle_1444" data-name="Rectangle 1444" width="82.099" height="82.099"
                transform="translate(453.014 19.659)" fill="#8e35ec" />
            <rect id="Rectangle_1445" data-name="Rectangle 1445" width="82.099" height="82.099"
                transform="translate(453.014 19.659)" fill="none" stroke="#fff"
                stroke-miterlimit="10" stroke-width="2" />
            <path id="Path_5042" data-name="Path 5042"
                d="M602.845,78.927c.042.155.076.309.1.464a4.912,4.912,0,0,1-.14,2.279,4.971,4.971,0,1,1-.109-3.194q.084.22.147.451"
                transform="translate(-125.387 -15.912)" fill="#ffea00" />
            <path id="Path_5043" data-name="Path 5043"
                d="M602.845,78.927c.042.155.076.309.1.464a4.912,4.912,0,0,1-.14,2.279,4.971,4.971,0,1,1-.109-3.194q.084.22.147.451"
                transform="translate(-125.387 -15.912)" fill="none" stroke="#000"
                stroke-miterlimit="10" stroke-width="2" />
            <path id="Path_5044" data-name="Path 5044"
                d="M602.845,78.927c.042.155.076.309.1.464a4.912,4.912,0,0,1-.14,2.279,4.971,4.971,0,1,1-.109-3.194Q602.782,78.7,602.845,78.927Z"
                transform="translate(-125.387 -15.912)" fill="none" stroke="#1d1d1b"
                stroke-miterlimit="10" stroke-width="2" />
            <path id="Path_5045" data-name="Path 5045"
                d="M606.822,72.248l2.5,9.165a1.123,1.123,0,0,1-.786,1.376l-9.1,2.482a1.123,1.123,0,0,1-1.376-.785l-2.5-9.165a1.123,1.123,0,0,1,.786-1.376l9.1-2.482a1.122,1.122,0,0,1,1.375.785"
                transform="translate(-125.903 -15.1)" fill="#fd3901" />
            <path id="Path_5046" data-name="Path 5046"
                d="M606.822,72.248l2.5,9.165a1.123,1.123,0,0,1-.786,1.376l-9.1,2.482a1.123,1.123,0,0,1-1.376-.785l-2.5-9.165a1.123,1.123,0,0,1,.786-1.376l9.1-2.482a1.122,1.122,0,0,1,1.375.785"
                transform="translate(-125.903 -15.1)" fill="none" stroke="#1d1d1b"
                stroke-miterlimit="10" stroke-width="2" />
            <path id="Path_5047" data-name="Path 5047"
                d="M595.832,74.046,605.9,71.3a.619.619,0,0,1,.76.434l2.763,10.131a.618.618,0,0,1-.434.76L598.92,85.372a.618.618,0,0,1-.759-.434L595.4,74.806a.619.619,0,0,1,.434-.76"
                transform="translate(-125.873 -15.069)" fill="#833be2" />
            <path id="Path_5048" data-name="Path 5048"
                d="M595.832,74.046,605.9,71.3a.619.619,0,0,1,.76.434l2.763,10.131a.618.618,0,0,1-.434.76L598.92,85.372a.618.618,0,0,1-.759-.434L595.4,74.806A.619.619,0,0,1,595.832,74.046Z"
                transform="translate(-125.873 -15.069)" fill="none" stroke="#000"
                stroke-miterlimit="10" stroke-width="2" />
            <path id="Path_5049" data-name="Path 5049"
                d="M645.749,64.432l-4.676.218a1.024,1.024,0,0,0-.716,1.253l1.242,4.555a1.023,1.023,0,0,0,1.253.715l4.2-1.957a1.023,1.023,0,0,0,.715-1.253L647,65.148a1.024,1.024,0,0,0-1.253-.716"
                transform="translate(-135.375 -13.614)" fill="#f7b5a8" />
            <path id="Path_5050" data-name="Path 5050"
                d="M645.749,64.432l-4.676.218a1.024,1.024,0,0,0-.716,1.253l1.242,4.555a1.023,1.023,0,0,0,1.253.715l4.2-1.957a1.023,1.023,0,0,0,.715-1.253L647,65.148a1.024,1.024,0,0,0-1.253-.716"
                transform="translate(-135.375 -13.614)" fill="none" stroke="#1d1d1b"
                stroke-miterlimit="10" stroke-width="2" />
            <path id="Path_5051" data-name="Path 5051"
                d="M645.749,64.431l-4.676.218a1.024,1.024,0,0,0-.716,1.253l1.242,4.555a1.023,1.023,0,0,0,1.253.715l4.2-1.957a1.023,1.023,0,0,0,.715-1.253L647,65.147a1.024,1.024,0,0,0-1.253-.716"
                transform="translate(-135.375 -13.614)" fill="#fd01b5" />
            <path id="Path_5052" data-name="Path 5052"
                d="M645.749,64.431l-4.676.218a1.024,1.024,0,0,0-.716,1.253l1.242,4.555a1.023,1.023,0,0,0,1.253.715l4.2-1.957a1.023,1.023,0,0,0,.715-1.253L647,65.147A1.024,1.024,0,0,0,645.749,64.431Z"
                transform="translate(-135.375 -13.614)" fill="none" stroke="#000" stroke-width="2" />
            <path id="Path_5053" data-name="Path 5053"
                d="M611.308,71.652h0l1.349,4.948a1.561,1.561,0,0,0,1.4,1.188c3.754.17,16.738,1.868,23.956,4.63,1.119.428,1.754-1.609,1.423-2.823L631.51,50.525a1.47,1.47,0,0,0-2.546-.684c-4.817,6.044-15.252,13.075-18.4,15.128a1.562,1.562,0,0,0-.6,1.736Z"
                transform="translate(-128.943 -10.428)" fill="#fd01b5" />
            <path id="Path_5054" data-name="Path 5054"
                d="M611.308,71.652h0l1.349,4.948a1.561,1.561,0,0,0,1.4,1.188c3.754.17,16.738,1.868,23.956,4.63,1.119.428,1.754-1.609,1.423-2.823L631.51,50.525a1.47,1.47,0,0,0-2.546-.684c-4.817,6.044-15.252,13.075-18.4,15.128a1.562,1.562,0,0,0-.6,1.736Z"
                transform="translate(-128.943 -10.428)" fill="none" stroke="#000" stroke-width="2" />
            <path id="Path_5055" data-name="Path 5055"
                d="M638.568,51.254,646.1,78.882a2.763,2.763,0,0,1-1.933,3.382l-.173.047-8.987-32.943.173-.047a2.762,2.762,0,0,1,3.382,1.932"
                transform="translate(-134.253 -10.407)" fill="#833be2" />
            <path id="Path_5056" data-name="Path 5056"
                d="M638.568,51.254,646.1,78.882a2.763,2.763,0,0,1-1.933,3.382l-.173.047-8.987-32.943.173-.047a2.762,2.762,0,0,1,3.382,1.932"
                transform="translate(-134.253 -10.407)" fill="none" stroke="#000"
                stroke-miterlimit="10" stroke-width="2" />
            <path id="Path_5057" data-name="Path 5057"
                d="M609.214,100.468h0a4.024,4.024,0,0,1-4.942-2.824l-2.606-9.553,7.767-2.118,2.605,9.553a4.025,4.025,0,0,1-2.824,4.942"
                transform="translate(-127.203 -18.176)" fill="#ffea00" />
            <path id="Path_5058" data-name="Path 5058"
                d="M609.214,100.468h0a4.024,4.024,0,0,1-4.942-2.824l-2.606-9.553,7.767-2.118,2.605,9.553A4.025,4.025,0,0,1,609.214,100.468Z"
                transform="translate(-127.203 -18.176)" fill="none" stroke="#000"
                stroke-miterlimit="10" stroke-width="2" />
            <line id="Line_471" data-name="Line 471" y1="11.777" x2="10.138"
                transform="translate(508.959 35.627)" fill="none" stroke="#000"
                stroke-linecap="round" stroke-miterlimit="10" stroke-width="2" />
            <line id="Line_472" data-name="Line 472" y1="6.44" x2="7.089"
                transform="translate(513.45 42.744)" fill="none" stroke="#000"
                stroke-linecap="round" stroke-miterlimit="10" stroke-width="2" />
            <line id="Line_473" data-name="Line 473" x2="9.376" y2="1.949"
                transform="translate(515.102 55.241)" fill="none" stroke="#000"
                stroke-linecap="round" stroke-miterlimit="10" stroke-width="2" />
            <line id="Line_474" data-name="Line 474" x2="13.02" y2="6.128"
                transform="translate(512.801 59.04)" fill="none" stroke="#000"
                stroke-linecap="round" stroke-miterlimit="10" stroke-width="2" />
            <path id="Path_5059" data-name="Path 5059"
                d="M1051.184,125.988a7.359,7.359,0,1,1,7.358,7.358,7.358,7.358,0,0,1-7.358-7.358"
                transform="translate(-222.238 -25.08)" fill="#00aeff" />
            <path id="Path_5060" data-name="Path 5060"
                d="M1051.184,125.988a7.359,7.359,0,1,1,7.358,7.358A7.358,7.358,0,0,1,1051.184,125.988Z"
                transform="translate(-222.238 -25.08)" fill="none" stroke="#fff"
                stroke-miterlimit="10" stroke-width="2" />
            <path id="Path_5061" data-name="Path 5061"
                d="M571.007,34.855c1.575-7.954,6.345-11.907,11.775-14.109.078-.032.068.1-.014.077-9.478-2.361-11.613-14.275-11.613-14.275S569.68,17.9,559.92,20.7c8.581,3.243,10.349,7.962,11.087,14.153"
                transform="translate(-118.377 -1.384)" fill="#0afdae" />
            <path id="Path_5062" data-name="Path 5062"
                d="M571.007,34.855c1.575-7.954,6.345-11.907,11.775-14.109.078-.032.068.1-.014.077-9.478-2.361-11.613-14.275-11.613-14.275S569.68,17.9,559.92,20.7c8.581,3.243,10.349,7.962,11.087,14.153"
                transform="translate(-118.377 -1.384)" fill="none" stroke="#fff"
                stroke-miterlimit="10" stroke-width="2" />
            <path id="Path_5063" data-name="Path 5063"
                d="M745.655,52.409,740.684,67.9H735.07l-2.508-8.278L729.921,67.9h-5.614l-4.971-15.492h5.392l2.707,8.808,2.863-8.808h4.815l2.707,8.92,2.863-8.92Z"
                transform="translate(-152.08 -11.08)" fill="#fff" />
            <path id="Path_5064" data-name="Path 5064"
                d="M767.092,63.962V67.9H754.176V52.409H766.8v3.939h-7.478v1.815h6.568v3.762h-6.568v2.036Z"
                transform="translate(-159.446 -11.08)" fill="#fff" />
            <path id="Path_5065" data-name="Path 5065"
                d="M791.691,65.2h-5.9l-1.043,2.7h-5.326l6.791-15.492h5.149l6.79,15.492h-5.414Zm-1.442-3.762-1.509-3.9-1.509,3.9Z"
                transform="translate(-164.783 -11.08)" fill="#fff" />
            <path id="Path_5066" data-name="Path 5066"
                d="M818.111,67.9l-.044-7.06-3.374,5.666h-2.307l-3.374-5.422V67.9h-4.771V52.409h4.3l5.06,8.256,4.926-8.256h4.306l.044,15.492Z"
                transform="translate(-170.031 -11.08)" fill="#fff" />
            <path id="Path_5067" data-name="Path 5067"
                d="M845.646,58.252c0,3.586-2.752,5.843-7.079,5.843h-2.241V67.9h-5.238V52.409h7.479c4.327,0,7.079,2.258,7.079,5.843m-5.282,0c0-1.128-.688-1.815-2.13-1.815h-1.908v3.629h1.908c1.442,0,2.13-.685,2.13-1.815"
                transform="translate(-175.706 -11.08)" fill="#fff" />
            <path id="Path_5068" data-name="Path 5068"
                d="M851.717,52.409h5.237V63.851h7.013V67.9h-12.25Z"
                transform="translate(-180.068 -11.08)" fill="#fff" />
            <rect id="Rectangle_1446" data-name="Rectangle 1446" width="5.237" height="15.492"
                transform="translate(685.342 41.329)" fill="#fff" />
            <path id="Path_5069" data-name="Path 5069"
                d="M884.167,56.348V59h6.48v3.94h-6.48V67.9h-5.237V52.408h12.627v3.94Z"
                transform="translate(-185.821 -11.08)" fill="#fff" />
            <path id="Path_5070" data-name="Path 5070"
                d="M905.786,62.28V67.9h-5.237V62.213l-5.858-9.8h5.526l3.173,5.356,3.2-5.356h5.06Z"
                transform="translate(-189.153 -11.08)" fill="#fff" />
            <path id="Path_5071" data-name="Path 5071"
                d="M735.723,86.772H742.2V96.1a17.9,17.9,0,0,1-9.633,2.8c-7.138,0-12.348-4.756-12.348-11.528s5.21-11.528,12.506-11.528c4.358,0,7.863,1.513,10.106,4.252l-4.769,4.19a6.315,6.315,0,0,0-4.959-2.426c-3.284,0-5.369,2.11-5.369,5.512,0,3.307,2.084,5.512,5.274,5.512a6.959,6.959,0,0,0,2.716-.535Z"
                transform="translate(-152.266 -16.034)" fill="#fff" />
            <path id="Path_5072" data-name="Path 5072"
                d="M761.609,92.986h-2.021V98.53h-7.453V76.482h10.643c6.158,0,10.074,3.213,10.074,8.315a7.381,7.381,0,0,1-4.168,6.929l4.642,6.8h-7.958Zm.695-10.772h-2.716v5.165H762.3c2.053,0,3.032-.976,3.032-2.583s-.979-2.583-3.032-2.583"
                transform="translate(-159.014 -16.17)" fill="#fff" />
            <path id="Path_5073" data-name="Path 5073"
                d="M780.85,87.37c0-6.678,5.274-11.528,12.475-11.528S805.8,80.693,805.8,87.37,800.524,98.9,793.325,98.9,780.85,94.048,780.85,87.37m17.432,0c0-3.433-2.21-5.512-4.958-5.512s-4.959,2.079-4.959,5.512,2.21,5.512,4.959,5.512,4.958-2.079,4.958-5.512"
                transform="translate(-165.085 -16.034)" fill="#fff" />
            <path id="Path_5074" data-name="Path 5074"
                d="M850.5,76.482,843.429,98.53h-7.99l-3.568-11.78-3.758,11.78h-7.99l-7.074-22.048h7.674l3.853,12.536,4.074-12.536H835.5l3.853,12.693,4.074-12.693Z"
                transform="translate(-171.893 -16.17)" fill="#fff" />
            <path id="Path_5075" data-name="Path 5075"
                d="M866.78,82.245h-6.474V76.482h20.4v5.764h-6.474V98.53H866.78Z"
                transform="translate(-181.883 -16.17)" fill="#fff" />
            <path id="Path_5076" data-name="Path 5076"
                d="M910.411,76.482V98.53h-7.453V90.4h-6.885V98.53H888.62V76.482h7.453v7.811h6.885V76.482Z"
                transform="translate(-187.87 -16.17)" fill="#fff" />
            <path id="Path_5077" data-name="Path 5077"
                d="M1025.49,54.214l-5.463,1.349-3.792,5.506-2.217-2.192-2.856-2.824-4.892,8.226,2.427,3.979h2.363l.675-5.16,4.5,4.616,3.228-3.452,4.337,4h2.312l2.4-5.16Z"
                transform="translate(-212.743 -11.462)" fill="#fff" />
            <path id="Path_5078" data-name="Path 5078"
                d="M943.051,51.4V93.762h-9.83V59.268h-8.495V51.4Z"
                transform="translate(-195.503 -10.867)" fill="#fd3902" />
            <path id="Path_5079" data-name="Path 5079"
                d="M955.81,72.387c0-13.979,7.767-21.907,18.2-21.907,10.5,0,18.2,7.928,18.2,21.907s-7.706,21.907-18.2,21.907c-10.437,0-18.2-7.928-18.2-21.907m26.516,0c0-9.622-3.4-13.616-8.312-13.616-4.855,0-8.253,3.994-8.253,13.616S969.159,86,974.014,86c4.914,0,8.312-3.994,8.312-13.616"
                transform="translate(-202.075 -10.672)" fill="#fd3902" />
        </g>
    </g>
</svg>
  