<svg id="Group_9366" data-name="Group 9366" xmlns="http://www.w3.org/2000/svg"
    xmlns:xlink="http://www.w3.org/1999/xlink" width="82.817" height="82.827"
    viewBox="0 0 82.817 82.827">
    <defs>
        <clipPath id="clip-path">
            <rect id="Rectangle_2494" data-name="Rectangle 2494" width="82.817" height="82.827"
                fill="none" />
        </clipPath>
    </defs>
    <g id="Group_9365" data-name="Group 9365" clip-path="url(#clip-path)">
        <path id="Path_13987" data-name="Path 13987"
            d="M9.874,143.329S7.22,146.715,7.5,147.813s2.471,1.424,3.2,1.764,26.356-26.015,26.356-26.015,5.308-5.4,5.4-5.033,2.1,7.779,2.1,7.779l7.23.366-5.033-16.2s-2.562-1.724-3.66-.862S26.8,125.669,26.8,125.669Z"
            transform="translate(-6.264 -91.649)" fill="#fff" />
        <path id="Path_13988" data-name="Path 13988"
            d="M211.571,248.524l2.562,1.031,8.419.549,6.04,6.04h2.471s4.942-6.223,5.216-6.314,12.354-.641,12.354-.641l1.83-7.6v-27s1.512-2.853-8.328-4.027-28.186-.458-28.46,0-4.027.915-4.3,3.111.275,32.853.549,33.768,1.647,1.074,1.647,1.074"
            transform="translate(-175.382 -175.912)" fill="none" />
        <path id="Path_13989" data-name="Path 13989"
            d="M0,54.507a8.5,8.5,0,0,1,2.215-3.1Q13.844,39.424,25.45,27.424a4.83,4.83,0,0,1,.643-.611,1.08,1.08,0,0,1,1.523.194,1.058,1.058,0,0,1,.152,1.464,6.486,6.486,0,0,1-.649.719Q15.28,41.414,3.438,53.637c-.187.193-.382.382-.553.589a1.69,1.69,0,0,0,.077,2.4,1.516,1.516,0,0,0,2.288-.168q3.391-3.469,6.757-6.962,11.47-11.85,22.939-23.7c.112-.116.223-.234.339-.346a1.235,1.235,0,0,1,2.221.583c.656,2.219,1.287,4.444,1.929,6.667.073.253.157.5.239.766h3.508c-.076-.311-.134-.588-.211-.858q-1.762-6.127-3.529-12.253c-.483-1.673-1.8-2.012-3.011-.771-1.766,1.817-3.521,3.643-5.291,5.455-.657.673-1.349.709-1.886.111a1.071,1.071,0,0,1-.028-1.593c2.014-2.1,3.979-4.255,6.093-6.251,1.994-1.883,5.576-.665,6.363,2.059q1.8,6.242,3.595,12.486c.059.2.132.406.231.709L69.121,8.219c-.935,0-1.67.023-2.4,0A3.913,3.913,0,0,1,63.032,6.03a4.236,4.236,0,0,1,.252-4.309A4.683,4.683,0,0,1,65.827,0H79.575a4.443,4.443,0,0,1,3.084,3.03A3.981,3.981,0,0,1,82.8,4.065c.01,4.151.028,8.3,0,12.452a4,4,0,0,1-5.321,4.009,4.048,4.048,0,0,1-2.729-3.988c-.021-.74,0-1.481,0-2.451L55.92,33.487h.994q6.509,0,13.018,0c3.761,0,6.136,2.336,6.143,6.076q.019,10.431,0,20.861a4.683,4.683,0,0,1-.039.725,1.049,1.049,0,0,1-1.07.919,1.066,1.066,0,0,1-1.232-.811,4.4,4.4,0,0,1-.08-1.042q-.006-10.188,0-20.376c0-2.741-1.192-3.926-3.943-3.926q-15.606,0-31.211-.005a3.249,3.249,0,0,0-3.429,3.383q-.017,15,0,30a3.19,3.19,0,0,0,3.4,3.4c2.964.025,5.93.044,8.894-.012a2.6,2.6,0,0,1,2.389,1.147c1.435,1.951,2.969,3.83,4.517,5.808,1.128-1.44,2.22-2.832,3.31-4.225.5-.637,1.016-1.259,1.484-1.917a1.835,1.835,0,0,1,1.655-.8c3.073.02,6.145.012,9.218.007,2.483,0,3.708-1.242,3.717-3.74,0-1.051-.013-2.1.007-3.153.018-.9.472-1.388,1.237-1.374.73.014,1.167.484,1.175,1.341.013,1.347.042,2.7-.028,4.042a5.483,5.483,0,0,1-5.252,5.261c-3.042.108-6.09.057-9.135.037a1.431,1.431,0,0,0-1.278.635c-1.606,2.1-3.244,4.168-4.87,6.248-.87,1.112-1.6,1.122-2.458.026-1.645-2.1-3.3-4.195-4.919-6.312a1.354,1.354,0,0,0-1.216-.595c-2.722.026-5.444.019-8.167.01-3.77-.012-6.105-2.338-6.107-6.1-.006-9.676.051-19.352-.032-29.028-.027-3.086,1.366-5.468,4.535-6.437l-1.408-4.907-.238-.157a4.925,4.925,0,0,1-.493.733Q21.088,43.606,7.169,57.984a4.1,4.1,0,0,1-3.747,1.44A3.889,3.889,0,0,1,.268,56.846C.19,56.655.09,56.472,0,56.286V54.507m47.99-21.02c1.3,0,2.4-.052,3.49.018a2.131,2.131,0,0,0,1.812-.773q10.724-11.1,21.485-22.167c.448-.462.885-.879,1.609-.6.757.3.8.911.794,1.593-.018,1.643-.024,3.287,0,4.93.019,1.153.65,1.823,1.626,1.81s1.561-.693,1.573-1.856c.014-1.428,0-2.856,0-4.283,0-2.64.007-5.28,0-7.92a1.627,1.627,0,0,0-1.568-1.8q-6.1-.035-12.2,0a1.562,1.562,0,0,0-1.6,1.815,1.616,1.616,0,0,0,1.824,1.533c1.7.019,3.4-.037,5.09.039a1.5,1.5,0,0,1,1.109.7c.155.344-.067.883-.192,1.317-.053.184-.278.32-.428.475q-6.529,6.727-13.059,13.453c-3.732,3.846-7.463,7.694-11.362,11.714"
            transform="translate(0 -0.001)" />
        <path id="Path_13990" data-name="Path 13990"
            d="M273.242,276.76c-1.98-3.43-1.534-6.909,1.146-9.153a6.577,6.577,0,0,1,8.472.032,6.78,6.78,0,0,1,1.1,9.105c.191.131.382.264.574.395a10.969,10.969,0,0,1,5.04,8.851c.072,1.212-.387,1.656-1.62,1.657q-9.339.005-18.679,0c-1.294,0-1.745-.478-1.644-1.8a11,11,0,0,1,5.026-8.7l.588-.394M287,285.191a2.619,2.619,0,0,0,0-.324c-.025-.159-.056-.318-.1-.473a8.481,8.481,0,0,0-5.267-6.008c-.932-.378-1.3-1.2-.824-1.9a4.734,4.734,0,0,1,.689-.673,4.225,4.225,0,0,0,.637-5.327,4.145,4.145,0,0,0-4.927-1.75,4.283,4.283,0,0,0-1.4,7.183c1.2,1.1,1.033,1.868-.463,2.555a10.168,10.168,0,0,0-2.134,1.283,8.262,8.262,0,0,0-3.062,5.43Z"
            transform="translate(-224.246 -222.958)" />
        <path id="Path_13991" data-name="Path 13991"
            d="M112.322,330.054c.919,0,1.721-.011,2.523,0,.9.015,1.4.466,1.384,1.218a1.214,1.214,0,0,1-1.343,1.2c-.8.023-1.61.005-2.566.005a21.085,21.085,0,0,1-.034,2.66,1.662,1.662,0,0,1-.742,1.094,1.287,1.287,0,0,1-1.16-.172,1.753,1.753,0,0,1-.46-1.126c-.069-.772-.02-1.554-.02-2.457-.9,0-1.751.029-2.6-.007-1.029-.044-1.649-.982-1.128-1.771a1.694,1.694,0,0,1,1.113-.614,24.059,24.059,0,0,1,2.619-.028c0-.918-.029-1.768.008-2.614.039-.912.584-1.385,1.4-1.265a1.122,1.122,0,0,1,1.005,1.249c.014.853,0,1.706,0,2.628"
            transform="translate(-88.812 -273.303)" />
        <path id="Path_13992" data-name="Path 13992"
            d="M130.091,33.9c.858,0,1.632-.009,2.406,0,.974.014,1.48.437,1.483,1.215s-.484,1.2-1.472,1.206c-.775.008-1.55,0-2.417,0,0,.882.008,1.682,0,2.482-.012.923-.424,1.4-1.19,1.409s-1.212-.478-1.23-1.38c-.016-.8,0-1.607,0-2.513-.894,0-1.72.012-2.546,0-.842-.016-1.334-.462-1.343-1.181a1.2,1.2,0,0,1,1.308-1.232c.828-.028,1.659-.006,2.581-.006,0-.872-.011-1.672,0-2.472.016-.89.472-1.415,1.206-1.421s1.2.519,1.214,1.4c.012.8,0,1.6,0,2.488"
            transform="translate(-103.719 -25.149)" />
        <path id="Path_13993" data-name="Path 13993"
            d="M30.993,125.67c.878,0,1.653-.009,2.429,0,.935.013,1.482.487,1.461,1.246-.02.729-.543,1.159-1.444,1.176-.753.014-1.507.016-2.261.026-.023,0-.045.026-.186.115,0,.746.019,1.57-.005,2.392s-.422,1.292-1.1,1.351a1.128,1.128,0,0,1-1.308-1.188c-.031-.857-.007-1.715-.007-2.694-.864,0-1.66.008-2.455,0-.966-.012-1.461-.442-1.445-1.235.016-.751.509-1.171,1.423-1.186.779-.012,1.559,0,2.471,0,0-.836-.008-1.632,0-2.427.012-.958.454-1.48,1.221-1.464.737.015,1.176.522,1.2,1.43.018.779,0,1.558,0,2.462"
            transform="translate(-20.675 -102.043)" />
        <path id="Path_13994" data-name="Path 13994"
            d="M296.135,46.011c3.9-4.02,7.63-7.868,11.362-11.714q6.529-6.728,13.059-13.453c.15-.155.375-.291.428-.475.125-.434.347-.973.192-1.317a1.5,1.5,0,0,0-1.109-.7c-1.694-.076-3.393-.021-5.09-.039a1.616,1.616,0,0,1-1.824-1.533,1.562,1.562,0,0,1,1.6-1.815q6.1-.036,12.2,0a1.627,1.627,0,0,1,1.568,1.8c.011,2.64,0,5.28,0,7.92,0,1.428.01,2.856,0,4.283-.011,1.163-.6,1.844-1.573,1.856s-1.607-.657-1.626-1.81c-.026-1.643-.02-3.287,0-4.93.007-.682-.037-1.3-.794-1.593-.724-.283-1.161.135-1.609.6Q312.177,34.17,301.437,45.256a2.131,2.131,0,0,1-1.812.773c-1.089-.07-2.187-.018-3.49-.018"
            transform="translate(-248.145 -12.526)" fill="#fff" />
        <path id="Path_13995" data-name="Path 13995"
            d="M300.121,297.75H283.268a8.262,8.262,0,0,1,3.063-5.43,10.172,10.172,0,0,1,2.134-1.283c1.5-.687,1.66-1.459.463-2.555a4.283,4.283,0,0,1,1.4-7.183,4.145,4.145,0,0,1,4.927,1.75,4.225,4.225,0,0,1-.637,5.327,4.736,4.736,0,0,0-.689.673c-.474.693-.108,1.518.824,1.9a8.481,8.481,0,0,1,5.267,6.008c.041.155.071.314.1.473a2.619,2.619,0,0,1,0,.324"
            transform="translate(-237.363 -235.517)" fill="#fff" />
    </g>
</svg>
  