<svg id="Group_10184" data-name="Group 10184" xmlns="http://www.w3.org/2000/svg" width="26.701" height="26.7" viewBox="0 0 26.701 26.7">
  <path id="Path_180" data-name="Path 180" d="M1476.516,26.94a13.35,13.35,0,1,1,13.35-13.35,13.366,13.366,0,0,1-13.35,13.35m0-25.392a12.042,12.042,0,1,0,12.042,12.042,12.055,12.055,0,0,0-12.042-12.042" transform="translate(-1463.166 -0.24)" fill="#fff"/>
  <path id="Path_181" data-name="Path 181" d="M1543.588,68.506a4.367,4.367,0,0,0-1.332-2.81,4.565,4.565,0,0,0-3.019-1.226,59.379,59.379,0,0,0-8.144.092,4.155,4.155,0,0,0-3.562,3.2c-.392,1.4-.314,7.858-.084,9.243a4.168,4.168,0,0,0,3.308,3.591,48.817,48.817,0,0,0,9.114.059,4.174,4.174,0,0,0,3.606-3.293c.376-1.438.244-7.557.112-8.854m-1.515,8.227a2.787,2.787,0,0,1-2.62,2.488,49.018,49.018,0,0,1-8.491-.118,2.7,2.7,0,0,1-2.048-2.326,55.116,55.116,0,0,1,0-8.309,2.783,2.783,0,0,1,2.609-2.476,58.026,58.026,0,0,1,8.1.032,2.788,2.788,0,0,1,2.482,2.625,59.038,59.038,0,0,1-.033,8.085m-6.583-8.347a4.222,4.222,0,1,0,4.22,4.224,4.222,4.222,0,0,0-4.22-4.224m-.028,6.949a2.73,2.73,0,1,1,2.754-2.706,2.73,2.73,0,0,1-2.754,2.706m5.4-7.109a.988.988,0,1,1-.986-.991.988.988,0,0,1,.986.991" transform="translate(-1522.139 -59.257)" fill="#fff"/>
</svg>
