<svg xmlns="http://www.w3.org/2000/svg" xmlns:xlink="http://www.w3.org/1999/xlink" width="175.153" height="82" viewBox="0 0 175.153 82">
  <defs>
    <clipPath id="clip-path">
      <rect id="Rectangle_2376" data-name="Rectangle 2376" width="175.153" height="82" fill="none"/>
    </clipPath>
  </defs>
  <g id="Group_9211" data-name="Group 9211" transform="translate(0 0)">
    <path id="Path_13788" data-name="Path 13788" d="M80.341,43.123l-2.367-3.062-4.4,3.775.3-7.629-2.416-3.088-4.539,3.569-.3,7.63,6.651-.46-2.9,4.684,2.458,3.016,7.092-.551Z" transform="translate(-8.857 -4.403)"/>
    <path id="Path_13789" data-name="Path 13789" d="M64.316,41.364l-.645.884,2.556,3.166,6.428-.444L70.61,41.634Z" transform="translate(-8.465 -5.499)" fill="#f1f100"/>
    <path id="Path_13790" data-name="Path 13790" d="M64.316,41.364l-.645.884,2.556,3.166,6.428-.444L70.61,41.634Z" transform="translate(-8.465 -5.499)" fill="none" stroke="#000" stroke-miterlimit="10" stroke-width="0.448"/>
    <g id="Group_9210" data-name="Group 9210" transform="translate(0 0)">
      <g id="Group_9209" data-name="Group 9209" clip-path="url(#clip-path)">
        <path id="Path_13791" data-name="Path 13791" d="M0,68.025l1.64,6.505s6.916,13.018,20.5,13.539a4.02,4.02,0,0,0,.721.021c.045,0,.088,0,.134,0l0-.009c4.678-.419,8.24-1.725,10.652-3.913a11.78,11.78,0,0,0,3.86-8.567,11.4,11.4,0,0,0-.213-2.989,7.438,7.438,0,0,0-1.042-2.491,5.944,5.944,0,0,0-.525-.679,6.382,6.382,0,0,0-1.026-2.09,7.059,7.059,0,0,0-2.03-1.778,14.824,14.824,0,0,0-3.2-1.4,12.883,12.883,0,0,1-2.2-.975c-.192-.109-.362-.222-.525-.334a2.813,2.813,0,0,1-.076-.714,6.366,6.366,0,0,1,.769-3.029,2.082,2.082,0,0,1,1.49-1.167,2.289,2.289,0,0,1,.438.007,6.686,6.686,0,0,1,.073,1.6L31.3,61.173l6.015-.538a11.656,11.656,0,0,0-.654-4.076,8.557,8.557,0,0,0-1.757-2.944,6.146,6.146,0,0,0-2.587-1.647c-.053-.018-.108-.029-.161-.045a6.629,6.629,0,0,0-1.575-.712,8.681,8.681,0,0,0-3.171-.366,10.1,10.1,0,0,0-6.946,2.983,10.314,10.314,0,0,0-2.69,6.9,7.253,7.253,0,0,0,.447,2.847,10.3,10.3,0,0,0,1.437,2.612c.108.144.224.28.338.418a11.843,11.843,0,0,0,1.21,2.378,10.937,10.937,0,0,0,2.1,2.349,12.073,12.073,0,0,0,2.619,1.692c.789.352,1.443.623,1.992.855.206.088.394.177.571.264a3.092,3.092,0,0,1-.392.8,4.412,4.412,0,0,1-1.488,1.311,8.039,8.039,0,0,1-2.131.773,17.78,17.78,0,0,1-2.64.349,9.853,9.853,0,0,1-3.934-.562,4.806,4.806,0,0,1-2.226-1.484,32.608,32.608,0,0,1-.2-5.275l-1.46.132c-.07-.934-.1-1.96-.072-3.109Z" transform="translate(0 -6.757)"/>
        <path id="Path_13792" data-name="Path 13792" d="M47.762,76.737,50.094,81c.346.1.727.2,1.144.3.348.059.731.116,1.184.168a7.556,7.556,0,0,0,1.4.029,12.246,12.246,0,0,0,7.75-2.955,14.993,14.993,0,0,0,4.056-7.788l3.721-.344.025,0,5-.508a12.587,12.587,0,0,0,1.691-.242,8.9,8.9,0,0,0,1.738-.579,8.166,8.166,0,0,0,1.685-.992,7.234,7.234,0,0,0,1.5-1.522,4.848,4.848,0,0,0,1.495,2.024,3.278,3.278,0,0,0,2.252.6L110.571,67.4a5.2,5.2,0,0,0,.616-1.418,11.834,11.834,0,0,0,.33-1.275l.14-.01a4.831,4.831,0,0,0,.838,1.819,1.586,1.586,0,0,0,1.445.651l1.088-.075,6-.414s5.734-.313,5.929-.327l1.264-.088a4.431,4.431,0,0,0,2.2-.777,4.2,4.2,0,0,0,1.551-2.026,7.13,7.13,0,0,0,3.57,2.673,12.107,12.107,0,0,0,4.878.581l.373-.024a12.4,12.4,0,0,0,4.689-1.369,10.055,10.055,0,0,0,3.838-3.185,3.186,3.186,0,0,0,1.4,1.864,3.75,3.75,0,0,0,2.151.477l1.264-.088c.013,0,.022,0,.035-.005s.021,0,.034,0l12.683-.656-.023-4.733,2.049,4.373,9.542-.659-1.047-29.749-1.948-4.62-5.97,2.588-2.627,27.521-.121-24.407L164.7,29.1l-6.276,2.388L156.268,53.71l-4.953.342a10.463,10.463,0,0,0-.6-3.068,7.153,7.153,0,0,0-2.085-3.026,7.647,7.647,0,0,0-3.264-1.568,13.712,13.712,0,0,0-4.048-.3,15.072,15.072,0,0,0-4.1.867,10.127,10.127,0,0,0-3.408,2.071,9.663,9.663,0,0,0-2.338,3.331,13.361,13.361,0,0,0-1,4.783,6.416,6.416,0,0,1-.239,1.6,2.209,2.209,0,0,1-.492.91,2.06,2.06,0,0,1-.718.466c-.25.1-3.274.268-3.274.268l.164-4.117c.012-.293-.227-.443-.754-.407l-6,.414-5.931.41-1.088.075c-.134.009-.266.017-.4.023a12.724,12.724,0,0,0-.544-2.525,9.6,9.6,0,0,0-1.735-3.163,12.074,12.074,0,0,0-.337-1.259,9.42,9.42,0,0,0-2.266-3.764,9.229,9.229,0,0,0-3.761-2.242,13.5,13.5,0,0,0-5.09-.525,15.251,15.251,0,0,0-4.273.921l-.23,7.523a6.967,6.967,0,0,1,1.14-1.372,5.571,5.571,0,0,1,1.474-.977,4.759,4.759,0,0,1,1.661-.408,4.833,4.833,0,0,1,1.743.213,4.058,4.058,0,0,1,1.508.814,4.139,4.139,0,0,1,1.028,1.43,4.554,4.554,0,0,1,.337,2.063l-.16,4.014L85.355,58.694a1.689,1.689,0,0,0-.488-.049l-1.5.1.29-7.259-2.254.156.182-4.577-7.3.5-.367,9.2a2.87,2.87,0,0,1-.712,2.051,2.281,2.281,0,0,1-1.358.677l-5.306.367a19.794,19.794,0,0,0-.257-2.883,9.105,9.105,0,0,0-1.528-3.815,5.7,5.7,0,0,0-.55-.634,9.081,9.081,0,0,0-1.523-3.788,5.922,5.922,0,0,0-2.927-2.091,11.471,11.471,0,0,0-4.5-.44,12.244,12.244,0,0,0-4.6,1.151,9.5,9.5,0,0,0-3.179,2.472,10.06,10.06,0,0,0-1.894,3.593,18.02,18.02,0,0,0-.7,4.428,9.674,9.674,0,0,0,.578,3.922,8.462,8.462,0,0,0,1.607,2.647,8.613,8.613,0,0,0,2.276,4.653,7.3,7.3,0,0,0,2.767,1.727,7.627,7.627,0,0,0,1.257.323,6.844,6.844,0,0,1-1.994.418,4.705,4.705,0,0,1-.735.01L49.8,71.5a5.814,5.814,0,0,1-.834-.152c-.277-.064-.52-.13-.727-.2Zm9.515-18.022-.082,2.05-2.563.177c-.071.005-.135,0-.2.005.028-.266.06-.534.1-.814a6.482,6.482,0,0,1,.488-1.7,4.734,4.734,0,0,1,.823-1.308,1.74,1.74,0,0,1,1.213-.584,2.072,2.072,0,0,1,.245,0q.022,1.011-.023,2.174m86.434-2.451a9.548,9.548,0,0,1-.211,1.766,5.163,5.163,0,0,1-.584,1.5,3.836,3.836,0,0,1-.953,1.067,2.523,2.523,0,0,1-1.384.471l.071-.047a2.132,2.132,0,0,1-1.353-.282,2.757,2.757,0,0,1-.873-.941,3.978,3.978,0,0,1-.47-1.386,9.11,9.11,0,0,1-.07-1.747,9.632,9.632,0,0,1,.21-1.766,5.174,5.174,0,0,1,.585-1.5,3.711,3.711,0,0,1,.918-1.065,2.518,2.518,0,0,1,1.384-.471,2.136,2.136,0,0,1,1.354.282,2.7,2.7,0,0,1,.838.943,4.21,4.21,0,0,1,.468,1.427,9.113,9.113,0,0,1,.07,1.747" transform="translate(-5.966 -3.767)"/>
        <path id="Path_13793" data-name="Path 13793" d="M100.87,55.409l1.069,1.862a5.526,5.526,0,0,1,5.313-2.877s2.778.186,2.566,3.971.375-7.377.375-7.377-9.035.078-9.324,4.42" transform="translate(-13.411 -6.779)" fill="#f1f100"/>
        <path id="Path_13794" data-name="Path 13794" d="M100.87,55.409l1.069,1.862a5.526,5.526,0,0,1,5.313-2.877s2.778.186,2.566,3.971.375-7.377.375-7.377S101.16,51.067,100.87,55.409Z" transform="translate(-13.411 -6.779)" fill="none" stroke="#000" stroke-miterlimit="10" stroke-width="0.448"/>
        <path id="Path_13795" data-name="Path 13795" d="M87.065,50.1l2.328,4.909-.257,6.578s-3.964,1.352-3.462-2.847l.171-7.538Z" transform="translate(-11.385 -6.66)" fill="#f1f100"/>
        <path id="Path_13796" data-name="Path 13796" d="M87.065,50.1l2.328,4.909-.257,6.578s-3.964,1.352-3.462-2.847l.171-7.538Z" transform="translate(-11.385 -6.66)" fill="none" stroke="#000" stroke-miterlimit="10" stroke-width="0.448"/>
        <path id="Path_13797" data-name="Path 13797" d="M14.5,70.5l1.4-.854,2.39,3.842c.038,1.46.939,6.569,7.5,6.166,0,0-13.164,3.5-11.294-9.153" transform="translate(-1.904 -9.259)" fill="#f1f100"/>
        <path id="Path_13798" data-name="Path 13798" d="M14.5,70.5l1.4-.854,2.39,3.842c.038,1.46.939,6.569,7.5,6.166C25.794,79.648,12.63,83.152,14.5,70.5Z" transform="translate(-1.904 -9.259)" fill="none" stroke="#000" stroke-miterlimit="10" stroke-width="0.448"/>
        <path id="Path_13799" data-name="Path 13799" d="M161.938,25.433s-.144-4.287-.432-5.851a9.1,9.1,0,0,0-1.529-3.816,5.926,5.926,0,0,0-2.927-2.091,11.473,11.473,0,0,0-4.5-.44,12.239,12.239,0,0,0-4.6,1.151,9.5,9.5,0,0,0-3.179,2.472,10.075,10.075,0,0,0-1.895,3.593,18.061,18.061,0,0,0-.7,4.428,9.688,9.688,0,0,0,.579,3.922,8.3,8.3,0,0,0,1.81,2.878,7.287,7.287,0,0,0,2.768,1.728,8.11,8.11,0,0,0,3.343.436l3.194-.221a6.377,6.377,0,0,1-1.719,3.623,5.59,5.59,0,0,1-3.484,1.325,4.717,4.717,0,0,1-.736.01l-.837-.067a5.827,5.827,0,0,1-.835-.152c-.277-.064-.519-.13-.727-.2L142.943,41l2.377,2.6q.519.151,1.143.3c.349.06.731.116,1.184.168a7.477,7.477,0,0,0,1.4.029,14.218,14.218,0,0,0,5.625-1.474,10.622,10.622,0,0,0,3.922-3.524,17.114,17.114,0,0,0,2.363-5.71,41.743,41.743,0,0,0,.982-7.951m-7.292.253-.081,2.05L152,27.913a2.561,2.561,0,0,1-1.254-.164,1.481,1.481,0,0,1-.708-.7A3.331,3.331,0,0,1,149.7,25.9a9.754,9.754,0,0,1-.046-1.459,16.41,16.41,0,0,1,.174-1.761,6.482,6.482,0,0,1,.488-1.7,4.712,4.712,0,0,1,.822-1.308,1.744,1.744,0,0,1,1.214-.584,1.622,1.622,0,0,1,1.279.412,2.671,2.671,0,0,1,.717,1.327,9.911,9.911,0,0,1,.3,2.106q.056,1.247,0,2.753" transform="translate(-18.902 -1.754)"/>
        <path id="Path_13800" data-name="Path 13800" d="M119.555,18.586a7.646,7.646,0,0,0-3.295-1.649,13.387,13.387,0,0,0-3.945-.269l-3.616.249-.226,5.689,3.616-.251a2.3,2.3,0,0,1,2.4,1.169,8.3,8.3,0,0,1,.574,4.048l-.108,2.718L95.31,35.985,97.831,37.8,122.091,35.8l.358-8.992a12.067,12.067,0,0,0-.676-5,8.164,8.164,0,0,0-2.217-3.225" transform="translate(-12.672 -2.211)"/>
        <path id="Path_13801" data-name="Path 13801" d="M178.047,11.738l-7.881,2.95-.683,17.148a17.919,17.919,0,0,1-.472,3.911c-.244.851-.682,1.3-1.279,1.34a4.74,4.74,0,0,1-1.118-.048,2.243,2.243,0,0,1-.931-.353l-.112,2.8a15.986,15.986,0,0,1-2.325-.249L165.472,42a5.042,5.042,0,0,0,3.712.393,8.662,8.662,0,0,0,3.168-.868,7.181,7.181,0,0,0,2.5-2.175,9.616,9.616,0,0,0,1.5-3.4c.335-1.358,4.5-20.763,4.5-20.763Z" transform="translate(-21.704 -1.56)"/>
        <path id="Path_13802" data-name="Path 13802" d="M135.91.039l-5.245,3.437-3.58,27.317,2.388,2.586,7.3-.5,3.708-28.619Z" transform="translate(-16.896 -0.005)"/>
        <path id="Path_13803" data-name="Path 13803" d="M108.23,19.806l-.266.49,2.19,2.623s6.173-1.132,6.02.918a17.17,17.17,0,0,0-1.016-4.852Z" transform="translate(-14.354 -2.524)" fill="#f1f100"/>
        <path id="Path_13804" data-name="Path 13804" d="M108.23,19.806l-.266.49,2.19,2.623s6.173-1.132,6.02.918a17.17,17.17,0,0,0-1.016-4.852Z" transform="translate(-14.354 -2.524)" fill="none" stroke="#000" stroke-linecap="round" stroke-miterlimit="10" stroke-width="0.448"/>
        <path id="Path_13805" data-name="Path 13805" d="M127.273,30.649l7.3-.5,1.191-29.9-7.3.5Z" transform="translate(-16.921 -0.032)" fill="#b1ef12"/>
        <path id="Path_13806" data-name="Path 13806" d="M127.273,30.649l7.3-.5,1.191-29.9-7.3.5Z" transform="translate(-16.921 -0.032)" fill="none" stroke="#000" stroke-miterlimit="10" stroke-width="0.448"/>
        <path id="Path_13807" data-name="Path 13807" d="M157.41,12.586a5.926,5.926,0,0,0-2.927-2.091,11.473,11.473,0,0,0-4.5-.44,12.239,12.239,0,0,0-4.6,1.151,9.5,9.5,0,0,0-3.179,2.472,10.075,10.075,0,0,0-1.895,3.593,18.06,18.06,0,0,0-.7,4.428,9.689,9.689,0,0,0,.579,3.922A8.3,8.3,0,0,0,142,28.5a7.288,7.288,0,0,0,2.768,1.728,8.11,8.11,0,0,0,3.343.436l3.194-.221a6.377,6.377,0,0,1-1.719,3.623A5.59,5.59,0,0,1,146.1,35.39a4.716,4.716,0,0,1-.736.01l-.837-.067a5.826,5.826,0,0,1-.835-.152c-.277-.064-.519-.13-.727-.2l-.217,5.437q.519.151,1.143.3c.349.06.731.116,1.184.168a7.477,7.477,0,0,0,1.4.029,14.218,14.218,0,0,0,5.625-1.474,10.622,10.622,0,0,0,3.922-3.524,17.113,17.113,0,0,0,2.363-5.71,38.305,38.305,0,0,0,.848-7.571l0-.622a25.772,25.772,0,0,0-.3-5.609,9.1,9.1,0,0,0-1.529-3.816m-5.331,9.92L152,24.556l-2.563.177a2.561,2.561,0,0,1-1.254-.164,1.481,1.481,0,0,1-.708-.7,3.33,3.33,0,0,1-.339-1.145,9.754,9.754,0,0,1-.046-1.459,16.406,16.406,0,0,1,.174-1.761,6.482,6.482,0,0,1,.488-1.7,4.712,4.712,0,0,1,.822-1.308,1.744,1.744,0,0,1,1.214-.584,1.622,1.622,0,0,1,1.279.412,2.671,2.671,0,0,1,.717,1.327,9.911,9.911,0,0,1,.3,2.106q.056,1.247,0,2.753" transform="translate(-18.56 -1.331)" fill="#b1ef12"/>
        <path id="Path_13808" data-name="Path 13808" d="M157.41,12.586a5.926,5.926,0,0,0-2.927-2.091,11.473,11.473,0,0,0-4.5-.44,12.239,12.239,0,0,0-4.6,1.151,9.5,9.5,0,0,0-3.179,2.472,10.075,10.075,0,0,0-1.895,3.593,18.06,18.06,0,0,0-.7,4.428,9.689,9.689,0,0,0,.579,3.922A8.3,8.3,0,0,0,142,28.5a7.288,7.288,0,0,0,2.768,1.728,8.11,8.11,0,0,0,3.343.436l3.194-.221a6.377,6.377,0,0,1-1.719,3.623A5.59,5.59,0,0,1,146.1,35.39a4.716,4.716,0,0,1-.736.01l-.837-.067a5.826,5.826,0,0,1-.835-.152c-.277-.064-.519-.13-.727-.2l-.217,5.437q.519.151,1.143.3c.349.06.731.116,1.184.168a7.477,7.477,0,0,0,1.4.029,14.218,14.218,0,0,0,5.625-1.474,10.622,10.622,0,0,0,3.922-3.524,17.113,17.113,0,0,0,2.363-5.71,38.305,38.305,0,0,0,.848-7.571l0-.622a25.772,25.772,0,0,0-.3-5.609A9.1,9.1,0,0,0,157.41,12.586Zm-5.331,9.92L152,24.556l-2.563.177a2.561,2.561,0,0,1-1.254-.164,1.481,1.481,0,0,1-.708-.7,3.33,3.33,0,0,1-.339-1.145,9.754,9.754,0,0,1-.046-1.459,16.406,16.406,0,0,1,.174-1.761,6.482,6.482,0,0,1,.488-1.7,4.712,4.712,0,0,1,.822-1.308,1.744,1.744,0,0,1,1.214-.584,1.622,1.622,0,0,1,1.279.412,2.671,2.671,0,0,1,.717,1.327,9.911,9.911,0,0,1,.3,2.106Q152.139,21,152.079,22.506Z" transform="translate(-18.56 -1.331)" fill="none" stroke="#000" stroke-miterlimit="10" stroke-width="0.448"/>
        <path id="Path_13809" data-name="Path 13809" d="M167.94,11.955,167.257,29.1a17.986,17.986,0,0,1-.471,3.911c-.245.851-.682,1.3-1.279,1.34a4.791,4.791,0,0,1-1.119-.049,2.243,2.243,0,0,1-.931-.353l-.212,5.312a6.853,6.853,0,0,0,1.56.392,7.892,7.892,0,0,0,1.679.051,9.071,9.071,0,0,0,3.643-.919,7.2,7.2,0,0,0,2.5-2.175,9.65,9.65,0,0,0,1.5-3.4c.334-1.358,3.721-21.293,3.721-21.293Z" transform="translate(-21.704 -1.585)" fill="#b1ef12"/>
        <path id="Path_13810" data-name="Path 13810" d="M167.94,11.955,167.257,29.1a17.986,17.986,0,0,1-.471,3.911c-.245.851-.682,1.3-1.279,1.34a4.791,4.791,0,0,1-1.119-.049,2.243,2.243,0,0,1-.931-.353l-.212,5.312a6.853,6.853,0,0,0,1.56.392,7.892,7.892,0,0,0,1.679.051,9.071,9.071,0,0,0,3.643-.919,7.2,7.2,0,0,0,2.5-2.175,9.65,9.65,0,0,0,1.5-3.4c.334-1.358,3.721-21.293,3.721-21.293Z" transform="translate(-21.704 -1.585)" fill="none" stroke="#000" stroke-miterlimit="10" stroke-width="0.448"/>
        <path id="Path_13811" data-name="Path 13811" d="M117.354,15.406a7.646,7.646,0,0,0-3.295-1.649,13.416,13.416,0,0,0-3.945-.27l-3.616.25-.226,5.689,3.616-.251a2.3,2.3,0,0,1,2.4,1.169,8.3,8.3,0,0,1,.574,4.048l-.108,2.718-16.936.949L95.5,35.384l24.394-2.762.358-8.992a12.068,12.068,0,0,0-.676-5,8.158,8.158,0,0,0-2.217-3.225" transform="translate(-12.696 -1.788)" fill="#b1ef12"/>
        <path id="Path_13812" data-name="Path 13812" d="M117.354,15.406a7.646,7.646,0,0,0-3.295-1.649,13.416,13.416,0,0,0-3.945-.27l-3.616.25-.226,5.689,3.616-.251a2.3,2.3,0,0,1,2.4,1.169,8.3,8.3,0,0,1,.574,4.048l-.108,2.718-16.936.949L95.5,35.384l24.394-2.762.358-8.992a12.068,12.068,0,0,0-.676-5A8.158,8.158,0,0,0,117.354,15.406Z" transform="translate(-12.696 -1.788)" fill="none" stroke="#000" stroke-miterlimit="10" stroke-width="0.448"/>
        <path id="Path_13813" data-name="Path 13813" d="M78.37,41.364l-.3,7.63-6.955.48.3-7.63Z" transform="translate(-9.454 -5.499)" fill="#51d876"/>
        <path id="Path_13814" data-name="Path 13814" d="M78.37,41.364l-.3,7.63-6.955.48.3-7.63Z" transform="translate(-9.454 -5.499)" fill="none" stroke="#000" stroke-miterlimit="10" stroke-width="0.448"/>
        <path id="Path_13815" data-name="Path 13815" d="M70.868,33.356,70.6,40.569l-6.981.417.264-7.214Z" transform="translate(-8.459 -4.434)" fill="#51d876"/>
        <path id="Path_13816" data-name="Path 13816" d="M70.868,33.356,70.6,40.569l-6.981.417.264-7.214Z" transform="translate(-8.459 -4.434)" fill="none" stroke="#000" stroke-miterlimit="10" stroke-width="0.448"/>
        <text id="CONTENT_MASTERS" data-name="CONTENT MASTERS" transform="matrix(0.999, -0.052, 0.052, 0.999, 63.194, 81.125)" font-size="9" font-family="Helvetica"><tspan x="0" y="0">CONTENT MASTERS</tspan></text>
        <path id="Path_13817" data-name="Path 13817" d="M32.642,65.592a14.822,14.822,0,0,0-3.2-1.405,13.005,13.005,0,0,1-2.2-.974,5.979,5.979,0,0,1-1.359-1.033,3.277,3.277,0,0,1-.695-1.036,2.4,2.4,0,0,1-.173-.948,5.081,5.081,0,0,1,.737-2.678,2.01,2.01,0,0,1,1.477-1.02c1.4-.1,2.207.849,2.406,2.879l6-.415a9.407,9.407,0,0,0-.7-3.622,7.7,7.7,0,0,0-1.786-2.63,6.451,6.451,0,0,0-2.6-1.489,8.665,8.665,0,0,0-3.172-.364,10.092,10.092,0,0,0-6.945,2.982,10.313,10.313,0,0,0-2.691,6.9,7.238,7.238,0,0,0,.447,2.847A10.336,10.336,0,0,0,19.63,66.2a10.592,10.592,0,0,0,2.122,2.105,12.693,12.693,0,0,0,2.635,1.528c.792.321,1.448.568,2,.779a11.572,11.572,0,0,1,1.34.616,1.7,1.7,0,0,1,.947,1.728,3.686,3.686,0,0,1-.605,2,4.417,4.417,0,0,1-1.488,1.313,8.058,8.058,0,0,1-2.131.773,17.9,17.9,0,0,1-2.639.349,9.85,9.85,0,0,1-3.934-.563,4.745,4.745,0,0,1-2.451-1.749,7.669,7.669,0,0,1-1.237-3.21,25.508,25.508,0,0,1-.264-4.777L.259,68.039C.2,70.5,9.736,80.1,14.746,82.428c1.707.794,4.06.929,6.868.735,4.669-.323,8.214-1.444,10.6-3.36a9.739,9.739,0,0,0,3.767-7.56,9.083,9.083,0,0,0-.245-2.652,6.918,6.918,0,0,0-3.1-4" transform="translate(-0.034 -6.758)" fill="#29e966"/>
        <path id="Path_13818" data-name="Path 13818" d="M32.642,65.592a14.822,14.822,0,0,0-3.2-1.405,13.005,13.005,0,0,1-2.2-.974,5.979,5.979,0,0,1-1.359-1.033,3.277,3.277,0,0,1-.695-1.036,2.4,2.4,0,0,1-.173-.948,5.081,5.081,0,0,1,.737-2.678,2.01,2.01,0,0,1,1.477-1.02c1.4-.1,2.207.849,2.406,2.879l6-.415a9.407,9.407,0,0,0-.7-3.622,7.7,7.7,0,0,0-1.786-2.63,6.451,6.451,0,0,0-2.6-1.489,8.665,8.665,0,0,0-3.172-.364,10.092,10.092,0,0,0-6.945,2.982,10.313,10.313,0,0,0-2.691,6.9,7.238,7.238,0,0,0,.447,2.847A10.336,10.336,0,0,0,19.63,66.2a10.592,10.592,0,0,0,2.122,2.105,12.693,12.693,0,0,0,2.635,1.528c.792.321,1.448.568,2,.779a11.572,11.572,0,0,1,1.34.616,1.7,1.7,0,0,1,.947,1.728,3.686,3.686,0,0,1-.605,2,4.417,4.417,0,0,1-1.488,1.313,8.058,8.058,0,0,1-2.131.773,17.9,17.9,0,0,1-2.639.349,9.85,9.85,0,0,1-3.934-.563,4.745,4.745,0,0,1-2.451-1.749,7.669,7.669,0,0,1-1.237-3.21,25.508,25.508,0,0,1-.264-4.777L.259,68.039C.2,70.5,9.736,80.1,14.746,82.428c1.707.794,4.06.929,6.868.735,4.669-.323,8.214-1.444,10.6-3.36a9.739,9.739,0,0,0,3.767-7.56,9.083,9.083,0,0,0-.245-2.652A6.918,6.918,0,0,0,32.642,65.592Z" transform="translate(-0.034 -6.758)" fill="none" stroke="#000" stroke-miterlimit="10" stroke-width="0.448"/>
        <path id="Path_13819" data-name="Path 13819" d="M156.193,53.868l-3.932.272-1.017.07a2.513,2.513,0,0,1-.838-.068,1.555,1.555,0,0,1-.685-.369,1.693,1.693,0,0,1-.421-.847,5.942,5.942,0,0,1-.113-1.577,11.748,11.748,0,0,0-.621-4.628,7.151,7.151,0,0,0-2.085-3.026,7.643,7.643,0,0,0-3.263-1.568,13.776,13.776,0,0,0-4.049-.3,15.058,15.058,0,0,0-4.1.867,10.131,10.131,0,0,0-3.409,2.071,9.7,9.7,0,0,0-2.338,3.331,13.4,13.4,0,0,0-1,4.783,6.465,6.465,0,0,1-.238,1.6,2.21,2.21,0,0,1-.492.91,2.071,2.071,0,0,1-.719.466,13.083,13.083,0,0,1-1.792.166l-6,.415-5.931.409-1.089.075a5.557,5.557,0,0,1-.84.016,1.743,1.743,0,0,1-.8-.237,1.618,1.618,0,0,1-.572-.586,2,2,0,0,1-.169-1.031,14.267,14.267,0,0,0-.637-5.086,9.433,9.433,0,0,0-2.266-3.765,9.244,9.244,0,0,0-3.761-2.242,13.5,13.5,0,0,0-5.09-.524,15.191,15.191,0,0,0-4.273.921l-.231,7.523a6.977,6.977,0,0,1,1.14-1.372,5.593,5.593,0,0,1,1.475-.978,4.734,4.734,0,0,1,1.661-.407,4.807,4.807,0,0,1,1.742.213,4.047,4.047,0,0,1,1.509.813,4.129,4.129,0,0,1,1.027,1.431,4.552,4.552,0,0,1,.338,2.062l-.16,4.015L84.791,58.8l-1.931.134a1.419,1.419,0,0,1-1.308-.535,3.43,3.43,0,0,1-.4-2.141l.36-9.035-7.3.5-.367,9.2a2.868,2.868,0,0,1-.712,2.051,2.286,2.286,0,0,1-1.357.677l-7.383.8a7.566,7.566,0,0,0,.07-.88l-.02-1.25a34.82,34.82,0,0,0-.3-5.61,9.094,9.094,0,0,0-1.529-3.815,5.933,5.933,0,0,0-2.927-2.092,11.489,11.489,0,0,0-4.5-.44,12.255,12.255,0,0,0-4.6,1.152A9.514,9.514,0,0,0,47.4,50a10.091,10.091,0,0,0-1.894,3.592,18.068,18.068,0,0,0-.7,4.428,9.7,9.7,0,0,0,.579,3.923,8.3,8.3,0,0,0,1.81,2.878,7.289,7.289,0,0,0,2.767,1.727,8.1,8.1,0,0,0,3.344.436l3.194-.22a6.382,6.382,0,0,1-1.719,3.622A5.59,5.59,0,0,1,51.3,71.711a4.827,4.827,0,0,1-.736.01l-.838-.068a5.812,5.812,0,0,1-.834-.151q-.416-.1-.727-.2l-.217,5.437q.519.152,1.143.3c.349.059.731.116,1.184.168a7.543,7.543,0,0,0,1.4.029,12.244,12.244,0,0,0,7.75-2.955A14.994,14.994,0,0,0,63.48,66.49l8.75-.855a12.593,12.593,0,0,0,1.69-.242,8.877,8.877,0,0,0,1.738-.579,8.133,8.133,0,0,0,1.686-.992,7.252,7.252,0,0,0,1.5-1.522,4.856,4.856,0,0,0,1.495,2.024,3.275,3.275,0,0,0,2.252.6l1.555-.108a1.129,1.129,0,0,0,.477.05l-.067-.079,23.872-1.649a5.191,5.191,0,0,0,.616-1.419,12.038,12.038,0,0,0,.331-1.275,14.03,14.03,0,0,0,.978,1.81,1.585,1.585,0,0,0,1.445.651l1.088-.075,6-.414s5.727-.312,5.93-.327L126.077,62a4.446,4.446,0,0,0,2.2-.778,4.2,4.2,0,0,0,1.55-2.025,7.133,7.133,0,0,0,3.57,2.672,12.094,12.094,0,0,0,4.878.581l.146-.135a13.408,13.408,0,0,0,4.916-1.257,10.066,10.066,0,0,0,3.838-3.186,3.186,3.186,0,0,0,1.4,1.864,3.746,3.746,0,0,0,2.152.477l1.263-.088.035,0h.035l11.233-.776,1.192-29.9-7.3.5ZM57.2,58.874l-.082,2.049-2.563.177a2.562,2.562,0,0,1-1.254-.163,1.487,1.487,0,0,1-.708-.7,3.33,3.33,0,0,1-.339-1.145,9.734,9.734,0,0,1-.046-1.458,16.4,16.4,0,0,1,.174-1.762,6.516,6.516,0,0,1,.487-1.7A4.754,4.754,0,0,1,53.7,52.86a1.743,1.743,0,0,1,1.214-.584,1.619,1.619,0,0,1,1.279.412,2.679,2.679,0,0,1,.717,1.327,9.913,9.913,0,0,1,.3,2.106q.056,1.249,0,2.754m81.427-2.791a4.614,4.614,0,1,1,4.614-4.614,4.615,4.615,0,0,1-4.614,4.614" transform="translate(-5.956 -3.914)" fill="#29e966"/>
        <path id="Path_13820" data-name="Path 13820" d="M156.193,53.868l-3.932.272-1.017.07a2.513,2.513,0,0,1-.838-.068,1.555,1.555,0,0,1-.685-.369,1.693,1.693,0,0,1-.421-.847,5.942,5.942,0,0,1-.113-1.577,11.748,11.748,0,0,0-.621-4.628,7.151,7.151,0,0,0-2.085-3.026,7.643,7.643,0,0,0-3.263-1.568,13.776,13.776,0,0,0-4.049-.3,15.058,15.058,0,0,0-4.1.867,10.131,10.131,0,0,0-3.409,2.071,9.7,9.7,0,0,0-2.338,3.331,13.4,13.4,0,0,0-1,4.783,6.465,6.465,0,0,1-.238,1.6,2.21,2.21,0,0,1-.492.91,2.071,2.071,0,0,1-.719.466,13.083,13.083,0,0,1-1.792.166l-6,.415-5.931.409-1.089.075a5.557,5.557,0,0,1-.84.016,1.743,1.743,0,0,1-.8-.237,1.618,1.618,0,0,1-.572-.586,2,2,0,0,1-.169-1.031,14.267,14.267,0,0,0-.637-5.086,9.433,9.433,0,0,0-2.266-3.765,9.244,9.244,0,0,0-3.761-2.242,13.5,13.5,0,0,0-5.09-.524,15.191,15.191,0,0,0-4.273.921l-.231,7.523a6.977,6.977,0,0,1,1.14-1.372,5.593,5.593,0,0,1,1.475-.978,4.734,4.734,0,0,1,1.661-.407,4.807,4.807,0,0,1,1.742.213,4.047,4.047,0,0,1,1.509.813,4.129,4.129,0,0,1,1.027,1.431,4.552,4.552,0,0,1,.338,2.062l-.16,4.015L84.791,58.8l-1.931.134a1.419,1.419,0,0,1-1.308-.535,3.43,3.43,0,0,1-.4-2.141l.36-9.035-7.3.5-.367,9.2a2.868,2.868,0,0,1-.712,2.051,2.286,2.286,0,0,1-1.357.677l-7.383.8a7.566,7.566,0,0,0,.07-.88l-.02-1.25a34.82,34.82,0,0,0-.3-5.61,9.094,9.094,0,0,0-1.529-3.815,5.933,5.933,0,0,0-2.927-2.092,11.489,11.489,0,0,0-4.5-.44,12.255,12.255,0,0,0-4.6,1.152A9.514,9.514,0,0,0,47.4,50a10.091,10.091,0,0,0-1.894,3.592,18.068,18.068,0,0,0-.7,4.428,9.7,9.7,0,0,0,.579,3.923,8.3,8.3,0,0,0,1.81,2.878,7.289,7.289,0,0,0,2.767,1.727,8.1,8.1,0,0,0,3.344.436l3.194-.22a6.382,6.382,0,0,1-1.719,3.622A5.59,5.59,0,0,1,51.3,71.711a4.827,4.827,0,0,1-.736.01l-.838-.068a5.812,5.812,0,0,1-.834-.151q-.416-.1-.727-.2l-.217,5.437q.519.152,1.143.3c.349.059.731.116,1.184.168a7.543,7.543,0,0,0,1.4.029,12.244,12.244,0,0,0,7.75-2.955A14.994,14.994,0,0,0,63.48,66.49l8.75-.855a12.593,12.593,0,0,0,1.69-.242,8.877,8.877,0,0,0,1.738-.579,8.133,8.133,0,0,0,1.686-.992,7.252,7.252,0,0,0,1.5-1.522,4.856,4.856,0,0,0,1.495,2.024,3.275,3.275,0,0,0,2.252.6l1.555-.108a1.129,1.129,0,0,0,.477.05l-.067-.079,23.872-1.649a5.191,5.191,0,0,0,.616-1.419,12.038,12.038,0,0,0,.331-1.275,14.03,14.03,0,0,0,.978,1.81,1.585,1.585,0,0,0,1.445.651l1.088-.075,6-.414s5.727-.312,5.93-.327L126.077,62a4.446,4.446,0,0,0,2.2-.778,4.2,4.2,0,0,0,1.55-2.025,7.133,7.133,0,0,0,3.57,2.672,12.094,12.094,0,0,0,4.878.581l.146-.135a13.408,13.408,0,0,0,4.916-1.257,10.066,10.066,0,0,0,3.838-3.186,3.186,3.186,0,0,0,1.4,1.864,3.746,3.746,0,0,0,2.152.477l1.263-.088.035,0h.035l11.233-.776,1.192-29.9-7.3.5ZM57.2,58.874l-.082,2.049-2.563.177a2.562,2.562,0,0,1-1.254-.163,1.487,1.487,0,0,1-.708-.7,3.33,3.33,0,0,1-.339-1.145,9.734,9.734,0,0,1-.046-1.458,16.4,16.4,0,0,1,.174-1.762,6.516,6.516,0,0,1,.487-1.7A4.754,4.754,0,0,1,53.7,52.86a1.743,1.743,0,0,1,1.214-.584,1.619,1.619,0,0,1,1.279.412,2.679,2.679,0,0,1,.717,1.327,9.913,9.913,0,0,1,.3,2.106Q57.262,57.369,57.2,58.874Zm81.427-2.791a4.614,4.614,0,1,1,4.614-4.614A4.615,4.615,0,0,1,138.629,56.083Z" transform="translate(-5.956 -3.914)" fill="none" stroke="#000" stroke-miterlimit="10" stroke-width="0.448"/>
        <path id="Path_13821" data-name="Path 13821" d="M193.874,28.579l-7.012.5-2.062,29.9,9.838-.323Z" transform="translate(-24.569 -3.799)" fill="#29e966"/>
        <path id="Path_13822" data-name="Path 13822" d="M193.874,28.579l-7.012.5-2.062,29.9,9.838-.323Z" transform="translate(-24.569 -3.799)" fill="none" stroke="#000" stroke-miterlimit="10" stroke-width="0.448"/>
      </g>
    </g>
  </g>
</svg>
