<svg id="Group_9364" data-name="Group 9364" xmlns="http://www.w3.org/2000/svg"
    xmlns:xlink="http://www.w3.org/1999/xlink" width="146.119" height="90.289"
    viewBox="0 0 146.119 90.289">
    <defs>
        <clipPath id="clip-path">
            <rect id="Rectangle_2493" data-name="Rectangle 2493" width="146.119" height="90.289"
                fill="none" />
        </clipPath>
    </defs>
    <g id="Group_9363" data-name="Group 9363" clip-path="url(#clip-path)">
        <path id="Path_13969" data-name="Path 13969"
            d="M5.551,255.292S4.275,233.1,13.188,227.007a50.815,50.815,0,0,1,17.648-7.674l22.793,1.085S74,224.293,76.34,230.766s2.142,24.483,2.142,24.483Z"
            transform="translate(-4.252 -169.934)" fill="none" />
        <path id="Path_13970" data-name="Path 13970"
            d="M74.809,86.822a27.117,27.117,0,0,1-.345-2.955c-.042-3.793.033-7.588-.031-11.38a18.162,18.162,0,0,0-13.085-17.38c-3.523-1.061-7.059-2.082-10.422-3.072-2.066,1.387-3.977,3.2-6.248,4.092-5.608,2.214-10.927,1.4-15.376-2.889-1.216-1.171-2.095-1.5-3.737-.784a45.111,45.111,0,0,1-7.213,2.263A18.308,18.308,0,0,0,3.975,72.6c-.075,3.792.013,7.587-.038,11.38a4.552,4.552,0,0,1-1.088,2.927c-.27-.427-.774-.855-.774-1.283,0-5.151-.277-10.338.225-15.445.732-7.45,5.037-12.665,11.234-15.814,0-6.839-.412-13.439.161-19.952.321-3.642,2.308-7.13,3.486-10.707,1.329-4.032,2.492-8.123,3.947-12.108a10.946,10.946,0,0,1,2.476-3.327c7.8-8.414,23.322-8.308,31.287-.016,3.37,3.509,4.129,7.924,5.262,12.278a8.6,8.6,0,0,0,.562,2.23c5.426,9.064,5.443,18.88,3.923,28.852-.283,1.857.043,2.723,1.664,3.658a19.2,19.2,0,0,1,9.983,16.163c.3,4.552.108,9.139.075,13.709a5.838,5.838,0,0,1-.581,1.717l-.971-.043M25.831,19.057c0,5.245-.335,10.194.092,15.076.45,5.141,8.083,11.436,13.214,11.509,4.752.068,12.522-5.772,13.153-10.812.636-5.088.14-10.318.14-15.737a39.312,39.312,0,0,1-26.6-.036m-9.552,34.4c2.814-.865,5.516-1.589,8.139-2.531,2.87-1.031,4.913-7.43,2.923-9.725-2.969-3.424-3.684-7.321-3.532-11.624.114-3.23.023-6.466.023-10.005-7.987,5.331-11.465,21.179-7.553,33.885m38.279-33.8c0,4.384.255,8.365-.092,12.293-.222,2.516-.665,5.531-2.193,7.3-2.779,3.215-1.258,6.371-1.081,9.592a1.815,1.815,0,0,0,1,1.284c3.3,1.186,6.634,2.268,9.977,3.39,3.735-13.778.31-29.078-7.611-33.858m-34.04-.552c3.939-2.414,3.927-2.371,8.048-1.155a36.2,36.2,0,0,0,20.1.3c3.068-.837,6.1-2.652,9.03.78a26.272,26.272,0,0,0-.791-3.472c-.749-3.072-2.475-4.214-5.8-4.092-7.654.282-15.325.09-22.988.089-5.4,0-5.559.121-7.081,5.45-.155.544-.273,1.1-.517,2.1m9.543,24.81c-1.63,5.125-1.243,6.93,1.973,9.212a12.348,12.348,0,0,0,14.7-.238c2.909-2.221,3.244-4.212,1.5-8.936-9.4,4.93-8.812,4.788-18.177-.038M53.149,9.643c-6.261-8.491-25.168-6.519-27.415,0Z"
            transform="translate(-1.55 -1.549)" />
        <path id="Path_13971" data-name="Path 13971"
            d="M74.809,86.822a27.117,27.117,0,0,1-.345-2.955c-.042-3.793.033-7.588-.031-11.38a18.162,18.162,0,0,0-13.085-17.38c-3.523-1.061-7.059-2.082-10.422-3.072-2.066,1.387-3.977,3.2-6.248,4.092-5.608,2.214-10.927,1.4-15.376-2.889-1.216-1.171-2.095-1.5-3.737-.784a45.111,45.111,0,0,1-7.213,2.263A18.308,18.308,0,0,0,3.975,72.6c-.075,3.792.013,7.587-.038,11.38a4.552,4.552,0,0,1-1.088,2.927c-.27-.427-.774-.855-.774-1.283,0-5.151-.277-10.338.225-15.445.732-7.45,5.037-12.665,11.234-15.814,0-6.839-.412-13.439.161-19.952.321-3.642,2.308-7.13,3.486-10.707,1.329-4.032,2.492-8.123,3.947-12.108a10.946,10.946,0,0,1,2.476-3.327c7.8-8.414,23.322-8.308,31.287-.016,3.37,3.509,4.129,7.924,5.262,12.278a8.6,8.6,0,0,0,.562,2.23c5.426,9.064,5.443,18.88,3.923,28.852-.283,1.857.043,2.723,1.664,3.658a19.2,19.2,0,0,1,9.983,16.163c.3,4.552.108,9.139.075,13.709a5.838,5.838,0,0,1-.581,1.717ZM25.831,19.057c0,5.245-.335,10.194.092,15.076.45,5.141,8.083,11.436,13.214,11.509,4.752.068,12.522-5.772,13.153-10.812.636-5.088.14-10.318.14-15.737A39.312,39.312,0,0,1,25.831,19.057Zm-9.552,34.4c2.814-.865,5.516-1.589,8.139-2.531,2.87-1.031,4.913-7.43,2.923-9.725-2.969-3.424-3.684-7.321-3.532-11.624.114-3.23.023-6.466.023-10.005C15.845,24.906,12.367,40.754,16.279,53.46Zm38.279-33.8c0,4.384.255,8.365-.092,12.293-.222,2.516-.665,5.531-2.193,7.3-2.779,3.215-1.258,6.371-1.081,9.592a1.815,1.815,0,0,0,1,1.284c3.3,1.186,6.634,2.268,9.977,3.39C65.9,39.741,62.479,24.441,54.558,19.662Zm-34.04-.552c3.939-2.414,3.927-2.371,8.048-1.155a36.2,36.2,0,0,0,20.1.3c3.068-.837,6.1-2.652,9.03.78a26.272,26.272,0,0,0-.791-3.472c-.749-3.072-2.475-4.214-5.8-4.092-7.654.282-15.325.09-22.988.089-5.4,0-5.559.121-7.081,5.45C20.88,17.557,20.762,18.112,20.518,19.11Zm9.543,24.81c-1.63,5.125-1.243,6.93,1.973,9.212a12.348,12.348,0,0,0,14.7-.238c2.909-2.221,3.244-4.212,1.5-8.936C38.838,48.889,39.426,48.746,30.061,43.92ZM53.149,9.643c-6.261-8.491-25.168-6.519-27.415,0Z"
            transform="translate(-1.55 -1.549)" fill="none" stroke="#000" stroke-miterlimit="10"
            stroke-width="4" />
        <path id="Path_13972" data-name="Path 13972"
            d="M388.854,126.428a52.462,52.462,0,0,0,3.027-5.707c1.066-2.84.2-4.435-2.7-5.329-6.042-1.863-12.138-.9-18.226-.247a85.563,85.563,0,0,1-10.152.9,104.893,104.893,0,0,1-10.593-1.165l-1.537,7.048-1.329-.187c.252-2.162.645-4.32.707-6.488a11.074,11.074,0,0,0-.639-4.536c-1.157-2.719-.652-5.525,2.435-7.2,2.676-1.455,5.758-2.186,8.7-3.127a31.381,31.381,0,0,1,3.918-.722,76.879,76.879,0,0,1-2.527-25.639A47.247,47.247,0,0,1,362.612,60.4c2.937-8.059,10.735-13.31,18.254-13.173a20.12,20.12,0,0,1,18.271,14.037,49.086,49.086,0,0,1,2.116,13.725c.147,7.552,2.19,14.187,7.387,19.692,5.168,5.475,7.364,11.474,4.449,18.9-.52,1.325.382,3.182.523,4.8.1,1.135.019,2.285.019,3.428l-1.147.105-1.059-4.6c-3.438,2.067-6.81,4.433-10.472,6.2a27.317,27.317,0,0,1-12.1,2.908m12.165-38.965a5.636,5.636,0,0,0-.382.918c-2.16,8.78-8.016,13.437-16.675,14.977a43.029,43.029,0,0,1-18.516-.858c-4.459-1.162-8.558-.3-12.46,1.444-1.738.776-4.251,3.068-4.035,4.232.349,1.88,2.579,3.482,4.188,5.02a4.045,4.045,0,0,0,2.473.734c2.9.112,5.817.241,8.713.09,6.979-.364,13.966-1.409,20.92-1.2,8.236.243,9.823,2.922,7.776,10.715-.016.062.083.154.259.458a32.273,32.273,0,0,0,13.142-5.572c7.091-5.3,8.049-13.456,2.533-20.4-2.705-3.407-5.238-6.951-7.937-10.551M399.53,77.5h-.16c0-2.235.13-4.479-.026-6.7-.366-5.217-1.66-10.159-4.882-14.421-5.531-7.316-14.723-9.227-22.272-4.691-4.777,2.87-7.557,7.2-9.035,12.414-2.276,8.021-1.509,16.206-.877,24.335a71.637,71.637,0,0,0,1.834,9.7,3.466,3.466,0,0,0,3.475,2.944c4.158.26,8.33,1.054,12.461.86,12.619-.593,19.343-7.8,19.481-20.36.015-1.36,0-2.721,0-4.082"
            transform="translate(-268.722 -36.592)" />
        <path id="Path_13973" data-name="Path 13973"
            d="M388.854,126.428a52.462,52.462,0,0,0,3.027-5.707c1.066-2.84.2-4.435-2.7-5.329-6.042-1.863-12.138-.9-18.226-.247a85.563,85.563,0,0,1-10.152.9,104.893,104.893,0,0,1-10.593-1.165l-1.537,7.048-1.329-.187c.252-2.162.645-4.32.707-6.488a11.074,11.074,0,0,0-.639-4.536c-1.157-2.719-.652-5.525,2.435-7.2,2.676-1.455,5.758-2.186,8.7-3.127a31.381,31.381,0,0,1,3.918-.722,76.879,76.879,0,0,1-2.527-25.639A47.247,47.247,0,0,1,362.612,60.4c2.937-8.059,10.735-13.31,18.254-13.173a20.12,20.12,0,0,1,18.271,14.037,49.086,49.086,0,0,1,2.116,13.725c.147,7.552,2.19,14.187,7.387,19.692,5.168,5.475,7.364,11.474,4.449,18.9-.52,1.325.382,3.182.523,4.8.1,1.135.019,2.285.019,3.428l-1.147.105-1.059-4.6c-3.438,2.067-6.81,4.433-10.472,6.2A27.317,27.317,0,0,1,388.854,126.428Zm12.165-38.965a5.636,5.636,0,0,0-.382.918c-2.16,8.78-8.016,13.437-16.675,14.977a43.029,43.029,0,0,1-18.516-.858c-4.459-1.162-8.558-.3-12.46,1.444-1.738.776-4.251,3.068-4.035,4.232.349,1.88,2.579,3.482,4.188,5.02a4.045,4.045,0,0,0,2.473.734c2.9.112,5.817.241,8.713.09,6.979-.364,13.966-1.409,20.92-1.2,8.236.243,9.823,2.922,7.776,10.715-.016.062.083.154.259.458a32.273,32.273,0,0,0,13.142-5.572c7.091-5.3,8.049-13.456,2.533-20.4C406.25,94.607,403.718,91.062,401.018,87.463ZM399.53,77.5h-.16c0-2.235.13-4.479-.026-6.7-.366-5.217-1.66-10.159-4.882-14.421-5.531-7.316-14.723-9.227-22.272-4.691-4.777,2.87-7.557,7.2-9.035,12.414-2.276,8.021-1.509,16.206-.877,24.335a71.637,71.637,0,0,0,1.834,9.7,3.466,3.466,0,0,0,3.475,2.944c4.158.26,8.33,1.054,12.461.86,12.619-.593,19.343-7.8,19.481-20.36C399.542,80.225,399.53,78.864,399.53,77.5Z"
            transform="translate(-268.722 -36.592)" fill="none" stroke="#000" stroke-miterlimit="10"
            stroke-width="4" />
        <path id="Path_13974" data-name="Path 13974"
            d="M156.9,275.492h4.664q0,.487.006.974H156.9q0-.487,0-.974"
            transform="translate(-121.561 -213.444)" />
        <path id="Path_13975" data-name="Path 13975"
            d="M107.376,77.737a39.313,39.313,0,0,0,26.6.036c0,5.419.5,10.649-.14,15.737-.63,5.04-8.4,10.88-13.153,10.812-5.13-.073-12.764-6.368-13.214-11.509-.427-4.882-.092-9.832-.092-15.076"
            transform="translate(-83.096 -60.229)" fill="#fff" />
        <path id="Path_13976" data-name="Path 13976"
            d="M59.855,113.917c-3.912-12.706-.434-28.554,7.553-33.886,0,3.539.092,6.776-.023,10.005-.152,4.3.563,8.2,3.532,11.624,1.99,2.295-.053,8.694-2.923,9.725-2.623.943-5.325,1.666-8.139,2.531"
            transform="translate(-45.126 -62.006)" fill="#fff" />
        <path id="Path_13977" data-name="Path 13977"
            d="M221.8,80.419c7.921,4.78,11.346,20.08,7.611,33.858-3.344-1.122-6.679-2.2-9.977-3.39a1.816,1.816,0,0,1-1-1.284c-.177-3.221-1.7-6.377,1.081-9.592,1.528-1.768,1.971-4.783,2.193-7.3.347-3.928.092-7.909.092-12.293"
            transform="translate(-168.793 -62.307)" fill="#fff" />
        <path id="Path_13978" data-name="Path 13978"
            d="M84.218,51.67c.245-1,.362-1.553.517-2.1,1.521-5.329,1.684-5.451,7.081-5.45,7.664,0,15.335.193,22.988-.089,3.327-.123,5.052,1.02,5.8,4.092A26.272,26.272,0,0,1,121.4,51.6c-2.932-3.432-5.963-1.617-9.03-.78a36.2,36.2,0,0,1-20.1-.3c-4.121-1.216-4.108-1.259-8.048,1.155"
            transform="translate(-65.25 -34.109)" fill="#fff" />
        <path id="Path_13979" data-name="Path 13979"
            d="M123.356,188.128c9.365,4.825,8.777,4.968,18.177.038,1.741,4.724,1.405,6.715-1.5,8.936a12.348,12.348,0,0,1-14.7.239c-3.215-2.282-3.6-4.088-1.972-9.212"
            transform="translate(-94.845 -145.757)" fill="#fff" />
        <path id="Path_13980" data-name="Path 13980"
            d="M134.793,16.492H107.378c2.247-6.52,21.154-8.492,27.415,0"
            transform="translate(-83.194 -8.398)" fill="#fff" />
        <path id="Path_13981" data-name="Path 13981"
            d="M408.241,225.865c2.7,3.6,5.231,7.144,7.937,10.551,5.516,6.946,4.558,15.1-2.533,20.4A32.27,32.27,0,0,1,400.5,262.39c-.176-.3-.276-.4-.259-.458,2.048-7.792.461-10.472-7.775-10.714-6.955-.2-13.941.839-20.92,1.2-2.9.151-5.811.023-8.713-.089a4.045,4.045,0,0,1-2.473-.734c-1.609-1.538-3.839-3.14-4.188-5.02-.216-1.164,2.3-3.456,4.035-4.232,3.9-1.742,8-2.606,12.46-1.444a43.027,43.027,0,0,0,18.516.858c8.659-1.539,14.515-6.2,16.675-14.977a5.612,5.612,0,0,1,.382-.919"
            transform="translate(-275.944 -174.994)" fill="none" />
        <path id="Path_13982" data-name="Path 13982"
            d="M450.4,84.445c0,1.361.013,2.722,0,4.082-.138,12.564-6.862,19.768-19.481,20.36-4.13.194-8.3-.6-12.461-.86a3.466,3.466,0,0,1-3.475-2.944,71.633,71.633,0,0,1-1.834-9.7c-.632-8.129-1.4-16.314.877-24.335,1.478-5.209,4.258-9.544,9.035-12.414,7.549-4.536,16.741-2.625,22.272,4.691,3.222,4.262,4.515,9.2,4.882,14.421.156,2.224.026,4.468.026,6.7h.16m-2.3-6.135c-.05-.825-.07-2.092-.214-3.345a16.765,16.765,0,0,0-15.243-14.82,16.235,16.235,0,0,0-17.154,12.828c-1.855,9.694.362,18.622,7.255,25.921,5.746,6.084,11.856,5.907,17.691-.18,5.337-5.567,7.282-12.47,7.666-20.4"
            transform="translate(-319.588 -43.534)" fill="#fff" />
        <path id="Path_13983" data-name="Path 13983"
            d="M456.234,91.771c-.384,7.935-2.329,14.838-7.666,20.4-5.836,6.087-11.945,6.264-17.691.18-6.893-7.3-9.11-16.227-7.255-25.921a16.235,16.235,0,0,1,17.154-12.828,16.765,16.765,0,0,1,15.244,14.82c.144,1.253.164,2.52.214,3.345m-16.732-6.5c-6.614-1.035-9.962,2.7-11.994,8.226-.719,1.955-1.793,4.191-1.433,6.052a21.314,21.314,0,0,0,8.222,13.339c3.6,2.7,7.1,2.7,10.7-.059,4.523-3.466,6.863-8.244,8.418-13.613,2.412-8.327-.615-11.034-8.422-13.339a30.328,30.328,0,0,0-5.486-.606m3.833-8.989c-6.182-1.569-11.068-.006-14.788,4.4-3.1,3.672-4.385,8.807-2.968,12.335,3.667-8.018,9.326-13.8,17.756-16.734M454.012,88.44a14.587,14.587,0,0,0-5.766-10.055,2.334,2.334,0,0,0-1.566-.564,23.051,23.051,0,0,0-12.274,6.023c7.306-.782,13.676-.438,19.606,4.6"
            transform="translate(-327.726 -56.995)" />
        <path id="Path_13984" data-name="Path 13984"
            d="M449.849,124.969a30.329,30.329,0,0,1,5.486.606c7.808,2.306,10.834,5.012,8.423,13.339-1.555,5.37-3.9,10.148-8.418,13.613-3.595,2.755-7.1,2.763-10.7.059a21.314,21.314,0,0,1-8.222-13.339c-.36-1.861.714-4.1,1.433-6.052,2.032-5.521,5.38-9.262,11.994-8.226"
            transform="translate(-338.074 -96.689)" fill="#fff" />
        <path id="Path_13985" data-name="Path 13985"
            d="M450.246,83.608c-8.43,2.933-14.089,8.716-17.756,16.735-1.418-3.528-.132-8.663,2.968-12.335,3.72-4.406,8.606-5.968,14.788-4.4"
            transform="translate(-334.638 -64.317)" fill="#fff" />
        <path id="Path_13986" data-name="Path 13986"
            d="M493.266,103.045c-5.93-5.033-12.3-5.377-19.606-4.6a23.051,23.051,0,0,1,12.274-6.023,2.334,2.334,0,0,1,1.566.564,14.587,14.587,0,0,1,5.766,10.055"
            transform="translate(-366.98 -71.6)" fill="#fff" />
    </g>
</svg>
  