<svg id="Group_9368" data-name="Group 9368" xmlns="http://www.w3.org/2000/svg"
    xmlns:xlink="http://www.w3.org/1999/xlink" width="80.879" height="80.856"
    viewBox="0 0 80.879 80.856">
    <defs>
        <clipPath id="clip-path">
            <rect id="Rectangle_2495" data-name="Rectangle 2495" width="80.879" height="80.856"
                fill="none" />
        </clipPath>
    </defs>
    <g id="Group_9367" data-name="Group 9367" clip-path="url(#clip-path)">
        <path id="Path_13996" data-name="Path 13996"
            d="M40.417,295c.47-.473.871-.9,1.3-1.3a33.066,33.066,0,0,1,11.023-6.755,38.463,38.463,0,0,1,9.814-2.277,47.563,47.563,0,0,1,11.371.261c1.437.2,2.864.482,4.29.752a1.176,1.176,0,0,1,.967,1.626q-1.306,4.486-2.628,8.968c-.088.3-.058.4.262.5,1.083.34,2.157.713,3.224,1.1a1.159,1.159,0,0,1,.837,1.266q0,2.938,0,5.876a1.177,1.177,0,0,1-1.618,1.2A43.392,43.392,0,0,0,65.3,304.117a41.7,41.7,0,0,0-19.4,5.02c-.566.307-.574.316-.371.917a4.313,4.313,0,0,1,.231,2.476,3.543,3.543,0,0,1-3.434,2.7q-1.864,0-3.728,0a3.54,3.54,0,0,1-3.412-4.546c.093-.323.183-.649.3-.965a.27.27,0,0,0-.161-.4c-1.481-.707-2.928-1.5-4.443-2.117a41.747,41.747,0,0,0-16.809-3.083,42.756,42.756,0,0,0-12.32,2.067A1.25,1.25,0,0,1,0,304.909c.046-1.926.013-3.854.014-5.781a1.157,1.157,0,0,1,.846-1.259q1.615-.589,3.254-1.113c.271-.087.315-.175.238-.437q-1.317-4.45-2.614-8.907a1.218,1.218,0,0,1,1.04-1.762,49.511,49.511,0,0,1,16.26-.911,35.988,35.988,0,0,1,17.706,6.905,27.087,27.087,0,0,1,3.533,3.148,1.956,1.956,0,0,1,.139.2m38.021,8.426c.011-.148.025-.249.025-.35,0-.958-.011-1.917.007-2.875a.433.433,0,0,0-.357-.49,41.267,41.267,0,0,0-14.373-2.181,42.858,42.858,0,0,0-16.012,3.429,46.436,46.436,0,0,0-6.545,3.415,1.253,1.253,0,0,1-1.426.029A41.922,41.922,0,0,0,32.6,300.74c-1.708-.65-3.442-1.256-5.2-1.749a39.479,39.479,0,0,0-12.268-1.45c-1.648.065-3.3.2-4.935.406a36.262,36.262,0,0,0-7.449,1.772.4.4,0,0,0-.321.452c.015.969,0,1.938.006,2.906,0,.1.016.2.028.34.363-.088.684-.176,1.01-.242,1.814-.365,3.619-.8,5.447-1.068a42.325,42.325,0,0,1,7.873-.369,45.249,45.249,0,0,1,7.292.88,42.118,42.118,0,0,1,9.692,3.192c1.271.6,2.5,1.305,3.723,2a1.228,1.228,0,0,1,.6,1.619c-.183.593-.371,1.185-.549,1.78a1.142,1.142,0,0,0,1.167,1.595q1.722.008,3.444,0a1.153,1.153,0,0,0,1.181-1.633c-.167-.543-.337-1.086-.5-1.629a1.309,1.309,0,0,1,.675-1.809c.851-.5,1.708-1,2.593-1.443a43.818,43.818,0,0,1,11.37-3.8,42.8,42.8,0,0,1,7.238-.773c1.461-.028,2.925.029,4.385.1a40.565,40.565,0,0,1,7.141,1.06c.716.165,1.427.351,2.2.543m-4.284-7.354.751-2.576c-.084-.043-.138-.077-.2-.1a25.716,25.716,0,0,0-11.53-1.626c-.566.051-1.128.141-1.693.207a1.165,1.165,0,0,1-1.281-.707,1.119,1.119,0,0,1,.32-1.341,1.907,1.907,0,0,1,.805-.319,27.735,27.735,0,0,1,13.947,1.459c.094.035.191.062.31.1l.991-3.4c-.137-.034-.227-.061-.319-.078a47.364,47.364,0,0,0-13.484-.656,34.974,34.974,0,0,0-13.446,4.071,27.506,27.506,0,0,0-7.489,5.88.885.885,0,0,0-.2.53c-.018,1.126-.01,2.253-.008,3.38,0,.107.012.215.021.352a46.058,46.058,0,0,1,32.5-5.18M4.3,287.742l1,3.422c.09-.024.141-.034.188-.052a27.845,27.845,0,0,1,7.8-1.741,25.8,25.8,0,0,1,6.419.266,1.557,1.557,0,0,1,.7.328,1.127,1.127,0,0,1,.251,1.357,1.187,1.187,0,0,1-1.348.638,25.627,25.627,0,0,0-12.774,1.3c-.567.2-.565.206-.4.775.2.674.4,1.348.6,2.034a46.058,46.058,0,0,1,32.515,5.192v-.393q0-1.153,0-2.306c0-1.447,0-1.446-1.033-2.483a29.169,29.169,0,0,0-7.1-5.213,36.546,36.546,0,0,0-16.658-4.051,47.066,47.066,0,0,0-7.555.5c-.852.121-1.7.276-2.606.424"
            transform="translate(0 -234.371)" />
        <path id="Path_13997" data-name="Path 13997"
            d="M166.829,33.157c.654,0,1.3-.011,1.935,0a1.137,1.137,0,0,1,1.09.727,1.114,1.114,0,0,1-.23,1.259,1.157,1.157,0,0,1-.908.364c-1.558,0-3.117,0-4.675,0h-.405v.417q0,2.259,0,4.517a1.233,1.233,0,0,1-1.393,1.4h-9.066a1.233,1.233,0,0,1-1.392-1.4q0-2.259,0-4.517v-.416h-5.019a1.183,1.183,0,0,1-1.3-1.162,1.2,1.2,0,0,1,1.284-1.189c.609-.005,1.218,0,1.859,0,.01-.125.024-.225.024-.325,0-1.569,0-3.138.006-4.707a.529.529,0,0,0-.235-.473A15.383,15.383,0,0,1,147.132,4.2,15.38,15.38,0,0,1,168.9,4.84a14.784,14.784,0,0,1,4.2,10.626,15.048,15.048,0,0,1-4.34,10.636c-.551.576-1.194,1.062-1.788,1.6a.494.494,0,0,0-.178.3c-.01,1.674-.006,3.348,0,5.022a.7.7,0,0,0,.039.136m-9.122-.029c2.106,0,4.213,0,6.319.006.285,0,.378-.073.376-.369-.013-1.8,0-3.6-.011-5.4a1.4,1.4,0,0,1,.651-1.25,12.846,12.846,0,0,0,5.285-13.765,12.344,12.344,0,0,0-8.258-9.175,12.376,12.376,0,0,0-13.472,3,12.367,12.367,0,0,0-3.666,11.523,12.6,12.6,0,0,0,5.442,8.417,1.406,1.406,0,0,1,.657,1.248c-.011,1.79,0,3.581-.011,5.371,0,.313.072.413.4.411,2.1-.015,4.191-.008,6.287-.008m.005,6.282c1.063,0,2.125,0,3.188,0,.186,0,.328-.014.326-.262-.009-1.062-.013-2.125-.006-3.187,0-.315-.121-.4-.434-.4-2.03.014-4.061.007-6.091.007-.478,0-.489,0-.493.492-.009,1,0,2-.01,3,0,.28.091.362.364.358,1.052-.013,2.1-.005,3.156-.005"
            transform="translate(-117.265 0)" />
        <path id="Path_13998" data-name="Path 13998"
            d="M103.187,119.534a1.112,1.112,0,0,1-.687,1q-1.051.507-2.118.982a1.179,1.179,0,1,1-.988-2.14c.7-.341,1.4-.673,2.116-.985a1.182,1.182,0,0,1,1.677,1.145"
            transform="translate(-81.314 -97.461)" />
        <path id="Path_13999" data-name="Path 13999"
            d="M98.741,38.6a1.154,1.154,0,0,1,1.585-1.06c.787.322,1.557.692,2.315,1.078a1.16,1.16,0,0,1,.5,1.5,1.142,1.142,0,0,1-1.447.627c-.807-.33-1.6-.708-2.377-1.095a1.1,1.1,0,0,1-.578-1.05"
            transform="translate(-81.363 -30.862)" />
        <path id="Path_14000" data-name="Path 14000"
            d="M335.345,39.57a1.09,1.09,0,0,1,.646-.96q1.076-.528,2.171-1.016a1.182,1.182,0,1,1,.989,2.146c-.7.338-1.4.671-2.117.982a1.179,1.179,0,0,1-1.689-1.152"
            transform="translate(-276.325 -30.887)" />
        <path id="Path_14001" data-name="Path 14001"
            d="M336.494,118.131a3.686,3.686,0,0,1,.539.153q1.036.465,2.059.957a1.181,1.181,0,1,1-.975,2.149q-1.066-.475-2.117-.983a1.178,1.178,0,0,1-.648-1.369,1.231,1.231,0,0,1,1.142-.907"
            transform="translate(-276.301 -97.34)" />
        <path id="Path_14002" data-name="Path 14002"
            d="M90.841,80.688c.389,0,.778-.007,1.167,0a1.179,1.179,0,0,1,1.181,1.184,1.158,1.158,0,0,1-1.164,1.165c-.809.016-1.619.017-2.428,0a1.162,1.162,0,0,1-1.139-1.161,1.182,1.182,0,0,1,1.152-1.186c.409-.014.82,0,1.23,0"
            transform="translate(-72.89 -66.484)" />
        <path id="Path_14003" data-name="Path 14003"
            d="M346.639,83.044c-.389,0-.778.009-1.167,0a1.177,1.177,0,1,1,.029-2.353q1.151-.01,2.3,0a1.177,1.177,0,1,1,0,2.353c-.389.008-.778,0-1.167,0"
            transform="translate(-283.69 -66.484)" />
        <path id="Path_14004" data-name="Path 14004"
            d="M89.782,364.659c-.775-.192-1.486-.378-2.2-.543a40.553,40.553,0,0,0-7.141-1.06c-1.46-.071-2.925-.128-4.385-.1a42.806,42.806,0,0,0-7.238.773,43.821,43.821,0,0,0-11.37,3.8c-.884.441-1.742.939-2.593,1.442a1.309,1.309,0,0,0-.675,1.809c.167.543.337,1.086.5,1.629a1.153,1.153,0,0,1-1.181,1.634q-1.722.006-3.444,0a1.142,1.142,0,0,1-1.167-1.595c.178-.595.366-1.187.549-1.78a1.228,1.228,0,0,0-.6-1.619c-1.223-.7-2.451-1.4-3.723-2a42.118,42.118,0,0,0-9.692-3.192,45.239,45.239,0,0,0-7.292-.88,42.33,42.33,0,0,0-7.873.369c-1.828.27-3.633.7-5.447,1.068-.326.066-.647.154-1.01.242-.012-.139-.028-.24-.028-.34,0-.969.009-1.938-.006-2.906a.4.4,0,0,1,.321-.452,36.25,36.25,0,0,1,7.449-1.772c1.637-.2,3.287-.341,4.935-.406a39.477,39.477,0,0,1,12.269,1.45c1.759.493,3.493,1.1,5.2,1.749a41.921,41.921,0,0,1,7.161,3.658,1.253,1.253,0,0,0,1.426-.028,46.42,46.42,0,0,1,6.545-3.415,42.856,42.856,0,0,1,16.012-3.429,41.267,41.267,0,0,1,14.373,2.181.433.433,0,0,1,.357.49c-.018.958-.005,1.917-.007,2.875,0,.1-.014.2-.025.35"
            transform="translate(-11.343 -295.608)" fill="none" />
        <path id="Path_14005" data-name="Path 14005"
            d="M269.081,307.226a46.058,46.058,0,0,0-32.5,5.18c-.008-.137-.021-.245-.021-.352,0-1.127-.009-2.253.008-3.38a.885.885,0,0,1,.2-.53,27.5,27.5,0,0,1,7.489-5.88,34.978,34.978,0,0,1,13.446-4.071,47.364,47.364,0,0,1,13.484.656c.091.017.181.044.319.078l-.991,3.4c-.119-.039-.216-.066-.31-.1a27.733,27.733,0,0,0-13.947-1.459,1.907,1.907,0,0,0-.805.319,1.119,1.119,0,0,0-.32,1.341,1.165,1.165,0,0,0,1.281.707c.565-.066,1.127-.156,1.693-.207a25.718,25.718,0,0,1,11.53,1.627c.057.022.11.055.195.1l-.751,2.577m-19-3.908a1.142,1.142,0,0,0,1.158,1.193,1.4,1.4,0,0,0,1.507-1.259,1.153,1.153,0,0,0-1.145-1.211,1.408,1.408,0,0,0-1.519,1.278"
            transform="translate(-194.927 -245.529)" fill="none" />
        <path id="Path_14006" data-name="Path 14006"
            d="M24.441,298.868c.906-.149,1.754-.3,2.606-.424a47.083,47.083,0,0,1,7.555-.5,36.545,36.545,0,0,1,16.658,4.051,29.156,29.156,0,0,1,7.1,5.213c1.032,1.037,1.033,1.036,1.033,2.483v2.7a46.058,46.058,0,0,0-32.516-5.192c-.2-.686-.4-1.36-.6-2.034-.168-.569-.169-.571.4-.775a25.631,25.631,0,0,1,12.774-1.3,1.187,1.187,0,0,0,1.348-.638,1.127,1.127,0,0,0-.251-1.357,1.557,1.557,0,0,0-.7-.328,25.8,25.8,0,0,0-6.419-.266,27.851,27.851,0,0,0-7.8,1.741c-.048.018-.1.027-.189.052l-1-3.422m21.432,4.445a1.4,1.4,0,0,0-1.494-1.3,1.15,1.15,0,0,0-1.17,1.186c.011.794.674,1.237,1.481,1.285a1.14,1.14,0,0,0,1.183-1.167"
            transform="translate(-20.139 -245.497)" fill="none" />
        <path id="Path_14007" data-name="Path 14007"
            d="M168.927,44.086c-2.1,0-4.191-.008-6.287.008-.329,0-.4-.1-.4-.411.014-1.79,0-3.581.011-5.371a1.406,1.406,0,0,0-.657-1.248,12.6,12.6,0,0,1-5.442-8.417,12.367,12.367,0,0,1,3.666-11.523,12.972,12.972,0,0,1,21.73,6.179,12.846,12.846,0,0,1-5.286,13.765,1.4,1.4,0,0,0-.651,1.25c.011,1.8,0,3.6.011,5.4,0,.3-.091.371-.376.369-2.106-.011-4.212-.006-6.319-.006M166.76,24.95c-.218-.23-.4-.436-.595-.624a3.6,3.6,0,0,0-3.757-.921,3.7,3.7,0,0,0-1.571,6.089q1.386,1.513,2.8,3a6.8,6.8,0,0,0,1.118,1.013,3.662,3.662,0,0,0,4.829-.7q3.735-3.984,7.459-7.978a3.713,3.713,0,0,0-5.411-5.084c-.848.892-1.682,1.8-2.523,2.7L166.76,24.95"
            transform="translate(-128.484 -10.957)" fill="none" />
        <path id="Path_14008" data-name="Path 14008"
            d="M213.338,205.908c-1.052,0-2.1-.008-3.156.005-.273,0-.368-.078-.364-.358.015-1,0-2,.01-3,0-.491.015-.491.493-.491,2.03,0,4.061.007,6.091-.007.313,0,.436.087.434.4-.007,1.063,0,2.125.006,3.187,0,.248-.14.263-.326.262-1.063,0-2.125,0-3.188,0"
            transform="translate(-172.891 -166.496)" fill="#fff" />
        <path id="Path_14009" data-name="Path 14009"
            d="M313.4,322.366a1.408,1.408,0,0,1,1.519-1.278,1.153,1.153,0,0,1,1.145,1.211,1.4,1.4,0,0,1-1.507,1.259,1.142,1.142,0,0,1-1.158-1.193"
            transform="translate(-258.244 -264.577)" />
        <path id="Path_14010" data-name="Path 14010"
            d="M133.744,322.383a1.14,1.14,0,0,1-1.183,1.167c-.807-.048-1.47-.492-1.481-1.285a1.15,1.15,0,0,1,1.17-1.186,1.4,1.4,0,0,1,1.494,1.3"
            transform="translate(-108.01 -264.568)" />
        <path id="Path_14011" data-name="Path 14011"
            d="M184.972,49.663c.8-.855,1.577-1.683,2.353-2.511.841-.9,1.675-1.8,2.523-2.7a3.713,3.713,0,0,1,5.411,5.084q-3.727,3.992-7.459,7.978a3.663,3.663,0,0,1-4.829.7,6.8,6.8,0,0,1-1.117-1.013q-1.418-1.483-2.8-3a3.7,3.7,0,0,1,1.571-6.089,3.6,3.6,0,0,1,3.757.92c.2.188.377.394.595.624m8.879-2.5a1.379,1.379,0,0,0-.858-1.391,1.318,1.318,0,0,0-1.46.4q-2.793,2.988-5.584,5.976a1.21,1.21,0,0,1-1.962-.011q-.623-.671-1.252-1.337a1.292,1.292,0,0,0-1.1-.45,1.247,1.247,0,0,0-1.106.819,1.263,1.263,0,0,0,.283,1.4q1.556,1.68,3.125,3.348a1.307,1.307,0,0,0,2.047.017q3.748-4,7.484-8a1.313,1.313,0,0,0,.381-.765"
            transform="translate(-146.697 -35.67)" />
        <path id="Path_14012" data-name="Path 14012"
            d="M205.086,58.419a1.313,1.313,0,0,1-.381.765q-3.74,4-7.484,8a1.307,1.307,0,0,1-2.047-.017q-1.564-1.672-3.125-3.347a1.263,1.263,0,0,1-.283-1.4,1.247,1.247,0,0,1,1.106-.819,1.292,1.292,0,0,1,1.1.45q.629.665,1.252,1.337a1.21,1.21,0,0,0,1.962.011q2.793-2.987,5.584-5.976a1.318,1.318,0,0,1,1.46-.4,1.379,1.379,0,0,1,.858,1.391"
            transform="translate(-157.932 -46.923)" fill="#fff" />
    </g>
</svg>
  