<svg id="Group_10189" data-name="Group 10189" xmlns="http://www.w3.org/2000/svg" width="26.494"
    height="26.494" viewBox="0 0 26.494 26.494">
    <path id="Path_184" data-name="Path 184"
        d="M3672.287,29.326a13.247,13.247,0,1,1,13.247-13.247,13.262,13.262,0,0,1-13.247,13.247m0-25.185a11.938,11.938,0,1,0,11.938,11.938,11.951,11.951,0,0,0-11.938-11.938"
        transform="translate(-3659.04 -2.832)" fill="#fff" />
    <path id="Path_185" data-name="Path 185"
        d="M3734.557,76.664a.466.466,0,0,0-.389-.346.982.982,0,0,0-.182-.008,2.33,2.33,0,0,1-1.559-.64,4.139,4.139,0,0,1-1.642-2.247c.043-.268.414-.426.891-.6.072-.026.139-.051.205-.077.576-.226.906-.522.982-.88a.79.79,0,0,0-.244-.735,1.274,1.274,0,0,0-1.639-.1.655.655,0,0,1-.276.067V68.951a4.626,4.626,0,0,0-4.622-4.621h-.159a4.626,4.626,0,0,0-4.621,4.621V71.1a.652.652,0,0,1-.276-.067,1.275,1.275,0,0,0-1.64.1.789.789,0,0,0-.244.735c.076.358.406.654.982.88.066.026.134.051.205.077.477.176.847.334.891.6a4.141,4.141,0,0,1-1.642,2.247,2.331,2.331,0,0,1-1.559.64.98.98,0,0,0-.182.008.466.466,0,0,0-.389.347c-.063.253-.164,1.1,1.178,1.447.318.081.565.123.746.153a1.638,1.638,0,0,1,.322.071.414.414,0,0,1,.065.13,3.182,3.182,0,0,1,.12.394,1.154,1.154,0,0,0,.137.367.587.587,0,0,0,.519.268,3.556,3.556,0,0,0,.406-.042,4.9,4.9,0,0,1,1.826-.02,3.85,3.85,0,0,1,.58.394A4.749,4.749,0,0,0,3725.982,81h.041a4.749,4.749,0,0,0,2.634-1.175,3.869,3.869,0,0,1,.58-.394,4.9,4.9,0,0,1,1.826.02,3.556,3.556,0,0,0,.406.042.586.586,0,0,0,.519-.268,1.137,1.137,0,0,0,.137-.367,3.194,3.194,0,0,1,.12-.394.419.419,0,0,1,.064-.13,1.6,1.6,0,0,1,.323-.071c.18-.03.427-.072.746-.153,1.343-.343,1.242-1.194,1.178-1.448"
        transform="translate(-3712.755 -59.42)" fill="#fff" />
    <path id="Path_186" data-name="Path 186"
        d="M3721.244,76.661h-.04a5.163,5.163,0,0,1-2.863-1.258,1.784,1.784,0,0,0-2.1-.294,3.708,3.708,0,0,1-.46.046,1,1,0,0,1-.864-.455,1.5,1.5,0,0,1-.192-.492c-.021-.084-.042-.17-.078-.272l-.095-.016c-.19-.032-.447-.075-.782-.161-1.361-.348-1.646-1.266-1.477-1.947a.873.873,0,0,1,.724-.654,1.37,1.37,0,0,1,.256-.013,1.961,1.961,0,0,0,1.3-.557,3.874,3.874,0,0,0,1.448-1.868,3.286,3.286,0,0,0-.59-.265c-.074-.027-.145-.053-.213-.08a1.763,1.763,0,0,1-1.236-1.178,1.212,1.212,0,0,1,.354-1.11,1.541,1.541,0,0,1,1.8-.333V64.2a5.04,5.04,0,0,1,5.034-5.034h.159a5.04,5.04,0,0,1,5.034,5.034v1.557a1.541,1.541,0,0,1,1.8.332,1.213,1.213,0,0,1,.354,1.11,1.762,1.762,0,0,1-1.235,1.178c-.067.026-.136.052-.208.079a3.324,3.324,0,0,0-.6.267,3.879,3.879,0,0,0,1.449,1.868,1.962,1.962,0,0,0,1.3.557,1.381,1.381,0,0,1,.256.013.884.884,0,0,1,.724.653h0c.169.681-.115,1.6-1.477,1.947-.335.086-.592.129-.78.16l-.1.017c-.035.1-.057.187-.078.271a1.5,1.5,0,0,1-.192.493,1,1,0,0,1-.864.455,3.708,3.708,0,0,1-.46-.046,1.781,1.781,0,0,0-2.1.294,5.168,5.168,0,0,1-2.863,1.258h-.041m-3.847-2.479a2,2,0,0,1,.781.12,3.968,3.968,0,0,1,.66.441,3.2,3.2,0,0,0,4.813,0,3.955,3.955,0,0,1,.661-.441,4.592,4.592,0,0,1,2.049-.013c.187.025.3.039.352.039a.179.179,0,0,0,.174-.081.824.824,0,0,0,.082-.242,3.635,3.635,0,0,1,.135-.441.784.784,0,0,1,.15-.265l.031-.032.037-.025a1.163,1.163,0,0,1,.484-.137c.176-.03.413-.069.714-.147.913-.233.944-.694.88-.948-.005-.021-.023-.034-.053-.039a.691.691,0,0,0-.108,0,2.7,2.7,0,0,1-1.817-.724,4.547,4.547,0,0,1-1.793-2.475l-.021-.082.013-.084c.085-.529.679-.748,1.156-.924l.2-.074c.426-.167.685-.374.729-.582a.39.39,0,0,0-.135-.359c-.376-.382-.761-.229-1.155-.024a1.057,1.057,0,0,1-.45.113l-.429.016V64.2a4.213,4.213,0,0,0-4.208-4.208h-.159a4.213,4.213,0,0,0-4.209,4.208V66.77l-.428-.016a1.057,1.057,0,0,1-.451-.113c-.395-.205-.779-.357-1.155.025a.388.388,0,0,0-.134.359c.044.208.3.414.729.582l.2.074c.477.176,1.07.395,1.155.924l.013.084-.021.082a4.547,4.547,0,0,1-1.793,2.475,2.7,2.7,0,0,1-1.817.724.7.7,0,0,0-.109,0c-.045.007-.051.031-.053.039-.063.253-.033.714.88.947.3.077.539.117.712.146a1.179,1.179,0,0,1,.485.136l.026.018.023.021a.726.726,0,0,1,.17.285,3.591,3.591,0,0,1,.135.441.822.822,0,0,0,.082.242.178.178,0,0,0,.173.081c.057,0,.165-.014.352-.039a10.089,10.089,0,0,1,1.269-.107"
        transform="translate(-3707.997 -54.665)" fill="#fff" />
</svg>
  