<svg id="Group_10185" data-name="Group 10185" xmlns="http://www.w3.org/2000/svg" width="26.597" height="26.597" viewBox="0 0 26.597 26.597">
    <path id="Path_187" data-name="Path 187" d="M2574.4,28.135a13.3,13.3,0,1,1,13.3-13.3,13.314,13.314,0,0,1-13.3,13.3m0-25.288a11.99,11.99,0,1,0,11.99,11.99,12,12,0,0,0-11.99-11.99" transform="translate(-2561.104 -1.538)" fill="#fff"/>
    <path id="Path_188" data-name="Path 188" d="M2675.237,82.537a6.177,6.177,0,0,0,3.6,1.152V81.105a3.644,3.644,0,0,1-.756-.079V83.06a6.178,6.178,0,0,1-3.6-1.152v5.273a4.78,4.78,0,0,1-7.439,3.968,4.779,4.779,0,0,0,8.2-3.339V82.537Zm.934-2.607a3.6,3.6,0,0,1-.934-2.109v-.332h-.717a3.616,3.616,0,0,0,1.65,2.441m-7.46,9.2a2.186,2.186,0,0,1,2.4-3.4V83.078a4.818,4.818,0,0,0-.756-.043v2.056a2.185,2.185,0,0,0-1.647,4.034" transform="translate(-2658.583 -71.425)" fill="#fff" fill-rule="evenodd"/>
    <path id="Path_189" data-name="Path 189" d="M2658.783,81.909a6.178,6.178,0,0,0,3.6,1.152V81.027a5.7,5.7,0,0,1-3.563-3.537h-1.883V87.811a3.091,3.091,0,1,1-2.279-2.719V83.036a4.473,4.473,0,1,0,4.123,4.146Z" transform="translate(-2642.885 -71.426)" fill="#fff" fill-rule="evenodd"/>
  </svg>
  