<svg xmlns="http://www.w3.org/2000/svg" xmlns:xlink="http://www.w3.org/1999/xlink" width="98.839"
    height="87.228" viewBox="0 0 98.839 87.228">
    <defs>
        <clipPath id="clip-path">
            <rect id="Rectangle_2487" data-name="Rectangle 2487" width="98.839" height="87.228"
                fill="none" />
        </clipPath>
    </defs>
    <g id="Group_9353" data-name="Group 9353" clip-path="url(#clip-path)">
        <path id="Path_13916" data-name="Path 13916"
            d="M26.98,15.349c4.682,0,9.364.011,14.045-.017a3.068,3.068,0,0,0,1.447-.381Q54.488,8.059,66.48,1.124A7.858,7.858,0,0,1,77.436,4.091c2.058,3.572,4.132,7.135,6.178,10.714a.944.944,0,0,0,.979.553,9.186,9.186,0,0,1,3.775.477,7.832,7.832,0,0,1,5.1,7.357c.018,2.681-.008,5.362.017,8.043a2.367,2.367,0,0,0,.291,1.1c1.288,2.279,2.611,4.538,3.917,6.806a7.772,7.772,0,0,1-2.929,10.937,2.192,2.192,0,0,0-1.325,2.284c.087,3.793.034,7.589.032,11.383a7.838,7.838,0,0,1-8.155,8.14q-13.8,0-27.6.014a2.683,2.683,0,0,0-1.274.335q-11.907,6.832-23.792,13.7c-4.338,2.507-8.9,1.29-11.392-3.045-1.939-3.379-3.912-6.738-5.826-10.131a1.43,1.43,0,0,0-1.531-.893A7.528,7.528,0,0,1,9.6,70.992a7.625,7.625,0,0,1-4.2-6.933c-.042-2.7,0-5.4-.02-8.1a2.113,2.113,0,0,0-.261-.984c-1.291-2.277-2.607-4.54-3.92-6.8A7.779,7.779,0,0,1,4.163,37.1a2.113,2.113,0,0,0,1.25-2.2c-.07-3.855-.028-7.713-.027-11.569a7.788,7.788,0,0,1,7.92-7.98c4.558-.02,9.116,0,13.674,0m22.43,3.079q-17.944,0-35.888,0A4.772,4.772,0,0,0,8.472,23.47c0,4.62.015,9.239.014,13.859q0,13.271-.013,26.541A4.764,4.764,0,0,0,13.39,68.8q36.011.006,72.023-.013a5.224,5.224,0,0,0,1.985-.367,4.687,4.687,0,0,0,2.984-4.692c0-4.6-.015-9.2-.014-13.8q0-13.209.009-26.418a5.988,5.988,0,0,0-.165-1.469A4.752,4.752,0,0,0,85.3,18.428q-17.944,0-35.888,0m30.9-3.114c-.151-.285-.24-.466-.341-.64Q77.4,10.232,74.832,5.792A4.737,4.737,0,0,0,67.879,3.9Q58.341,9.386,48.816,14.893c-.159.092-.3.21-.453.316l.065.1ZM18.579,71.932c.082.19.125.323.194.441,1.813,3.141,3.608,6.292,5.452,9.415a4.686,4.686,0,0,0,6.508,1.67q9.672-5.564,19.332-11.149c.147-.085.278-.2.531-.376ZM5.172,48.949l.167-.074V40c-.223.147-.38.232-.517.344a4.539,4.539,0,0,0-1.487,5,34.561,34.561,0,0,0,1.837,3.6m88.339-1.713c.273-.2.477-.324.653-.482a4.705,4.705,0,0,0,.984-5.811c-.427-.776-.881-1.538-1.328-2.3a3.452,3.452,0,0,0-.308-.372Z"
            transform="translate(0 0)" />
        <path id="Path_13918" data-name="Path 13918"
            d="M269.525,27.406H237.642l-.065-.1c.151-.106.294-.225.453-.316q9.529-5.5,19.063-10.993a4.737,4.737,0,0,1,6.954,1.893q2.572,4.439,5.138,8.881c.1.174.19.355.341.64"
            transform="translate(-189.214 -12.092)" fill="#fff" />
        <path id="Path_13919" data-name="Path 13919"
            d="M91.267,353.36h32.018c-.253.18-.385.291-.531.376q-9.664,5.578-19.332,11.149a4.686,4.686,0,0,1-6.508-1.67c-1.844-3.123-3.639-6.274-5.452-9.415-.068-.118-.111-.251-.194-.441"
            transform="translate(-72.688 -281.427)" fill="#fff" />
        <path id="Path_13920" data-name="Path 13920"
            d="M17.22,205.459a34.584,34.584,0,0,1-1.837-3.6,4.54,4.54,0,0,1,1.487-5c.137-.112.294-.2.517-.344v8.872l-.167.074"
            transform="translate(-12.048 -156.509)" fill="#fff" />
        <path id="Path_13921" data-name="Path 13921"
            d="M459.36,196.962v-8.967a3.451,3.451,0,0,1,.308.372c.448.765.9,1.526,1.328,2.3a4.7,4.7,0,0,1-.984,5.811c-.175.157-.38.282-.653.482"
            transform="translate(-365.85 -149.725)" fill="#fff" />
        <path id="Path_13922" data-name="Path 13922"
            d="M85.779,140.59a9.943,9.943,0,0,1-6.9-4.623,9.121,9.121,0,0,1-1.262-6.231,9.416,9.416,0,0,1,18.438-.967,9.212,9.212,0,0,1-.183,5.3,9.312,9.312,0,0,1-2.978,4.318,10.472,10.472,0,0,1-4.847,2.148,14.76,14.76,0,0,1,5.2,1.524,13.9,13.9,0,0,1,7.811,12.56c.029.927,0,1.855,0,2.783,0,1.454-.522,1.983-1.961,1.983H79.44c-1.608,0-3.216,0-4.825,0a1.593,1.593,0,0,1-1.818-1.824,26.158,26.158,0,0,1,.412-6.273,14.172,14.172,0,0,1,12.333-10.653c.08-.008.158-.028.237-.043M75.93,156.28H97.122c.145,0,.289-.009.433,0,.317.02.453-.123.436-.438-.049-.946-.008-1.9-.151-2.836a11.034,11.034,0,0,0-21.1-2.544,12.343,12.343,0,0,0-.81,5.818m4.7-25.171a6.322,6.322,0,1,0,6.276-6.322,6.325,6.325,0,0,0-6.276,6.322"
            transform="translate(-57.975 -96.924)" />
        <path id="Path_13923" data-name="Path 13923"
            d="M260.227,217.429H244.952c-1.318,0-2.025-.539-2.026-1.542s.722-1.561,2.015-1.561q15.336,0,30.672,0c1.195,0,1.872.582,1.86,1.579a1.452,1.452,0,0,1-1.235,1.476,5,5,0,0,1-.862.046q-7.575,0-15.15,0"
            transform="translate(-193.474 -170.695)" />
        <path id="Path_13924" data-name="Path 13924"
            d="M260.157,260.815q7.822,0,15.645,0a1.481,1.481,0,0,1,1.668,1.432,1.522,1.522,0,0,1-1.42,1.639c-.143.014-.289.008-.433.008h-30.8c-.082,0-.165,0-.248,0a1.566,1.566,0,0,1-1.65-1.553,1.509,1.509,0,0,1,1.65-1.525q6.184-.007,12.368,0h3.216"
            transform="translate(-193.473 -207.721)" />
        <path id="Path_13925" data-name="Path 13925"
            d="M253.916,121.744q4.607,0,9.215,0a1.551,1.551,0,1,1,.045,3.076q-9.277.007-18.553,0a1.539,1.539,0,0,1-1.685-1.3,1.519,1.519,0,0,1,1.034-1.7,2.463,2.463,0,0,1,.73-.076q4.607-.007,9.215,0"
            transform="translate(-193.468 -96.961)" />
        <path id="Path_13926" data-name="Path 13926"
            d="M253.848,171.111c-3.071,0-6.143.019-9.213-.022a2.2,2.2,0,0,1-1.329-.48,1.482,1.482,0,0,1,.55-2.465,2.608,2.608,0,0,1,.849-.115q9.152-.009,18.3,0a2.667,2.667,0,0,1,.848.119,1.524,1.524,0,0,1-.363,2.943,6.138,6.138,0,0,1-.679.02q-4.483,0-8.966,0"
            transform="translate(-193.413 -133.821)" />
        <path id="Path_13927" data-name="Path 13927"
            d="M343.465,294.7c-1.979,0-3.959.019-5.937-.015a2.5,2.5,0,0,1-1.215-.335,1.372,1.372,0,0,1-.552-1.585,1.4,1.4,0,0,1,1.183-1.119,3.082,3.082,0,0,1,.553-.046q6.062,0,12.123,0a1.557,1.557,0,1,1,.031,3.092c-2.062.012-4.123,0-6.185,0"
            transform="translate(-267.367 -232.237)" />
        <path id="Path_13928" data-name="Path 13928"
            d="M88.017,242.132a12.345,12.345,0,0,1,.81-5.818,11.034,11.034,0,0,1,21.1,2.544c.143.931.1,1.89.151,2.836.016.315-.12.458-.436.438-.144-.009-.289,0-.433,0H88.017Z"
            transform="translate(-70.061 -182.775)" fill="#fff" />
        <path id="Path_13929" data-name="Path 13929"
            d="M111.278,143.2a6.322,6.322,0,1,1,6.345,6.314,6.33,6.33,0,0,1-6.345-6.314"
            transform="translate(-88.625 -109.012)" fill="#fff" />
    </g>
</svg>
  