<svg id="Group_10187" data-name="Group 10187" xmlns="http://www.w3.org/2000/svg" width="26.701"
    height="26.7" viewBox="0 0 26.701 26.7">
    <path id="Path_173" data-name="Path 173"
        d="M810.75,168.243l-5.882,6.266H803.44q3.339-3.56,6.68-7.12Z"
        transform="translate(-797.707 -154.043)" fill="#fff" />
    <g id="Group_334" data-name="Group 334" transform="translate(0 0)">
        <path id="Path_171" data-name="Path 171"
            d="M744.99,26.945a13.35,13.35,0,1,1,13.35-13.35,13.365,13.365,0,0,1-13.35,13.35m0-25.391A12.041,12.041,0,1,0,757.032,13.6,12.055,12.055,0,0,0,744.99,1.554"
            transform="translate(-731.64 -0.245)" fill="#fff" />
        <path id="Path_172" data-name="Path 172"
            d="M819.539,90.82q-2.417-3.221-4.832-6.443l-.7.748q2.406,3.209,4.813,6.417h-2.034l-3.868-5.255c-.236.25-.471.5-.705.751q2.033,2.757,4.062,5.515h4.569q-.652-.867-1.3-1.734M807.793,79.333h1.865l3.709,4.944.7-.748-3.906-5.207h-4.372q2.892,3.932,5.788,7.862.351-.375.7-.75Z"
            transform="translate(-799.871 -72.088)" fill="#fff" />
        <path id="Path_174" data-name="Path 174"
            d="M907.691,78.321q-3.193,3.4-6.386,6.8l-.636-.848,5.587-5.956Z"
            transform="translate(-887.173 -72.087)" fill="#fff" />
    </g>
</svg>
  