<svg id="Group_10186" data-name="Group 10186" xmlns="http://www.w3.org/2000/svg" width="26.494" height="26.494" viewBox="0 0 26.494 26.494">
  <path id="Path_182" data-name="Path 182" d="M3306.524,29.326a13.247,13.247,0,1,1,13.247-13.247,13.262,13.262,0,0,1-13.247,13.247m0-25.185a11.938,11.938,0,1,0,11.938,11.938,11.952,11.952,0,0,0-11.938-11.938" transform="translate(-3293.277 -2.832)" fill="#fff"/>
  <path id="Path_183" data-name="Path 183" d="M3355.975,107.8a1.933,1.933,0,0,1-1.287-1.225c-.557-1.5-.722-7.785.351-9.023a2.091,2.091,0,0,1,1.4-.73c2.889-.3,11.82-.261,12.85.1a2,2,0,0,1,1.264,1.192c.609,1.553.63,7.2-.081,8.7a1.935,1.935,0,0,1-.906.9c-1.078.554-12.173.548-13.591.089m4.59-2.945,5.2-2.647-5.2-2.663Z" transform="translate(-3349.382 -89.129)" fill="#fff" fill-rule="evenodd"/>
</svg>
